<svg xmlns="http://www.w3.org/2000/svg" width="786.498" height="644.37" viewBox="0 0 786.498 644.37">
  <defs>
    <style>
      .cls-1 {
        fill: none;
        stroke: #0c3c3a;
        stroke-linecap: round;
        stroke-linejoin: round;
        stroke-width: 1.5px;
        fill-rule: evenodd;
      }
    </style>
  </defs>
  <path id="Kształt_5" data-name="Kształt 5" class="cls-1" d="M1182,1371c17.69,25.58,23.39,53.16,28,53,2.41-.08,3.14-1.06,5-1s-7.06,7.14-14,25-15.06,71.14-12,87-9.46,29.74-11,38c-2.74,17.06-10.26,25.74-5,24s16.54-45.66,23-53,13.54-39.46,23-63,14.34-26.46,16-25-3.46,4.14-5,4,4.14-15.26,6-17,5.54,8.34,5,14-4.46,12.94-13,22-22.26,58.34-23,70-15.86,38.74-30,59-26.26,34.94-24,37,12.34-6.46,20-2-8.06,30.74,6,22,38.34-73.06,44-94,7.54-10.86,10-6,7.94,2.14,12-10-0.66-14.86-1-18-0.66-14.66,22-36,61.34-22.26,60-25-31.26-3.26-40-2-41.26,33.94-48,43-13.66,33.94-12,18,20.74-46.06,31-52,5.74-7.46-1-7-17.46,9.94-29,22-12.26,69.14-14,86-13.06,23.34-16,23,1.54-17.26,4-13c5.06,12.86-4.66,16.14-6,21-1.94,8.46-15.06,48.74-53,76s-107.46,51.94-122,58-55.055,12.34-58,11-5.255-6.66,0-5,9.545-1.46,6,5c-4.145,9.26-9.855.74-13,1s-42.855,6.54-31,0,34.745-31.86,39-44,31.745-12.06,60-20,17.54-9.46,23-17,19.34-8.46,36-16,26.14-16.86,28-16-1.46,9.94-3,12-7.86,7.34-24,14-32.66,14.54-35,16,7.94,4.74,16,3,5.14,0.74,5,7,6.94,3.94,13,6,9.54-6.46,15-10,7.14-5.86,4-6-6.46-1.86-1-6,7.54,0.34,11,1,3.54-6.66,14-5,18.54-11.06,12-11-7.66,14.14-9,20,3.14,18.14,7,15,5.94-.66,7,2,7.34-4.06,12-5,9.94-7.06,8-10,2.34-8.66,1-9,1.34-7.46-1-8-7.06-1.06-6-7-4.06-11.66-6-7-8.06,6.14-9,0-5.26-5.46-8-8-11.86,4.14-14,3,8.74-11.26,14-12,2.94,12.74,7,4c3.86-11.94,30.14-51.46,31-56s-37.46,34.34-58,46-48.86,22.34-52,22-21.06,16.34-26,19-23.06,17.14-23,14,25.14-25.86,27-28-34.06,4.34-38,4-20.255,14.34-21,17-5.667,6.95-12,14c-6.183,6.89-.879,12.39-21,10-6.829-.81-9.455-11.06-4-12s4.7-1.89,11-11c6.311-9.14,16.573-11.39,12.307-12.48-6.283-1.61-33.362,21.42-45.307,15.48s-36.855-2.06-45-1-17.055,9.74-7,9,12.545,4.14,18,8,11.345,5.34,24,1,17.745-.26,23,1,11.345-4.46,18-5,10.945-10.06,18-16c10.055-7.14,20.945-15.86,14-19s-43.255,3.94-59,10-31.655,1.94-43,1-20.255,1.34-21,5-6.655,5.34-12,10,0.745,9.34,2,15-2.855,18.14,3,21,17.345-11.06,31-9,18.145,6.94,12,10,1.745,11.14-7,14-9.655,9.94-5,9,1.745-13.46-4-16-13.055,11.54-16,8-3.455.94-12,2-14.455-11.86-25-21-9.855-23.86,6-41,35.745-16.66,35-14-31.368,4.62-10-2a37.644,37.644,0,0,1,28,2h-1s0.545-.46,9-1,23.745-2.66,22-1-3.655,6.54,0,6,2.145,4.54-2,9-4.655,11.94,1,13,1.945,6.34-2,14,6.545,17.54,9,24-10.655,8.34-11,11-2.055,1.74-8-1-3.055,7.94,0,13-8.655.74-6,5,3.345,7.34-8,5-24.655-10.26-37-15-37.855-5.06-44-7-14.255-4.86-18-26,25.545-37.86,9-32-25.055,19.94-26,29,33.345,37.34,36,37,5.945,2.74,28,10,25.345,3.34,20-1c-9.345-7.74-16.855-11.46-13,0s31.68,14.4,31,13,3.014-1.26,5-2,20.347,10.24,27,15c9.653,13.6,16.18,17.07,13,13s-16.653-25.43,7-1,50.014,35.57,52,36,4.68-6.26,2-10-4.3-4.72-19-13c-12.847-7.24-33.82-17.43-37-23s3.347-3.76,8-4,27.514,18.24,37,24,3.18,0.74,4-4-1.986-9.1-6-13-19.153-4.6-24-7,1.514-2.93,10-4,6.014,0.4,10,2,4.68,5.57,9,9,7.347,9.24,6,12,3.847,11.4,6,13,3.68,9.24,2,9,1.014,4.07,0,7-4.642,6.59-15,6c-15.847-.9-35.653-18.26-44-22s-20.986-24.43-27-30-8.653-10.1-3-9c31.486,6.6,124.68-10.1,140-13s40.51-6.43,62-17,37.35-20.93,37-17-31.82,25.57-30,28,18.68,2.74,10,4-45.49,3.4-31-2,48.35-27.1,46-25,8.18-5.1,8-4,1.18,5.07,2,6-12.82,10.57-19,13-14.49,6.9-7,6,26.51-2.76,25-1c-4.35,7.6-50.49,14.9-57,15s-39.15-3.43-34-6c12.32-4.74,67.18-28.26,80-37s41.51-37.93,63-66,24.35-47.1,26-48,2.35,4.9,5,2,5.85-1.6,5,2-0.65,22.4-2,24-30.32,27.07-28,20,32.01-41.76,34-41,1.01,9.74,0,12-1.49,7.9-3,11-28.15,23.4-42,33-6.32-1.26,0-11,36.85-72.43,44-96,7.01-22.43,24-51c22.82-35.57,73.68-39.26,85-41s15.01-5.43,11-6-14.99-2.26-18-3-8.49-.1-14-3-8.32-1.43-14-1-13.82,1.4-18,0-7.49.07-11,2-2.65-.93-8,0-10.99,1.07-16,2-4-10-4-10a2.871,2.871,0,0,0-1,0c-0.51.1,0.35-18.26-5-23s-4.32-10.6-9-14-1.65-9.93-4-10-11.82,10.4-10,5,3.85-7.1,1-10-11.32,3.4-26,15-11.7,59.46-13,66,0.96,38.79,2,49,1.46,14.46-16,43-66.2,55.29-73,59-7.7,1.96-9,2-11.04,6.13-27,12-49.87,5.96-52,5-4.87,1.63-18,2-7.371-5.04-9-7-6.2,4.13-8,4,6.3-10.21,5-13-7.7-.54-11,0-9.7,13.63-11,13,2.629-6.71,2-10,6.129-8.21-5-8-16.371,17.96-27,19-3.7-4.04,10-16,25-9,25-9,0.629,0.46,3,4,8.8-1.21,16,1,5.963,8.63,7,10,1.8,3.96-1,5,0.129,6.63-2,7-52.371,2.46-59,2-18.871,3.63-33,0-32.037,1.29-40,1-8.8-.39-19,1c-10.393,1.41-14.255,2.54-18,5s-6.871,5.29-12,7-7.371,4.46-21,12-9.037,12.63-11,12-37.871-29.04-49-76c-8.868-37.42-3.037-41.87-10-52-5.992-8.71-12.7-22.71-12-31s-3.2-9.71-6-20,4.514-28.16,9-32c6.521-5.58,6.268-7.91-1.306-7.06-6.022.67-6.71,6.16-6.694,9.06s-6.182,5.43-8,7-5.516,8.1-2,8,2.651,3.93,6,4,13.818-10.24,15-14a26.756,26.756,0,0,1,9-13c5.015-3.76,9.484-9.24,5-8s-13.349,5.76-10-5,6.984-11.07,9-6-6.016,6.1-5,3-3.349-5.07-6-7,10.651-14.9,15-16-0.849,4.93,0,11,10.818,1.43,15-2,6.651-1.9,8-3,0.818,0.1,2-4-3.682-8.07-5-6-12.849,2.26-13-4,17.484-12.4,23-14,1.984,5.43,9,4,10.818-8.9,18-22,14.984-10.4,11-8-3.516,10.93,0,11-0.849,2.76,4,4,9.651-7.57,24-9,13.151-7.9,11-8,0.818-5.57,4-9,12.151-3.57,10-11-14.516,3.6-13-4-21.516-8.07-25-10,8.818-2.9,12-7-4.349-7.74-3-12,3.151-3.4,16-2,27.818-4.07,28-6,2.818-1.24,5-8,11.818-2.57,17,0,15.318-6.9,11-11,2.484-9.9,1-12-2.516-6.07,1-9,5.318-2.74,9-6c10.849-10.6,63.818-11.4,73-15s17.651,0.1,27,9,29.15,8.43,29,12-7.68,6.93-4,12-2.02,12.6-12,19-14.016,18.43-7,24-5.02,12.76-13,17-12.516,8.43,1,9,29.32-.07,24-2-4.18-5.57,2-7,6.65-12.57,14-20,24.32-4.74,24,4-21,12-21,12-0.18-.24-1,3,10.82,5.26,19,8-33.68,6.6-41,8-3.68,24.1-2,27,2.48,3.26,1,14-11.35,30.26-11,26,3.82-39.07,2-49-5.849-15.57-5-9-2.016,69.1-4,70-6.849-3.4-8-7-6.849-10.9-10-16,9.651-39.07,7-40-10.682,22.6-13,27-7.516-13.9-4-17,12.484-17.9,15-21-7.349-2.07-10-2-5.849,5.43-6,7-1.349,2.6-4,14,5.984,30.1,13,36,6.651,16.76,9,18a23.787,23.787,0,0,1,8,6c2.682,3.24,7.48,1.6,8-1s7.15-7.07,9-12,10.48-25.57,9-30,0.15-15.07,0-20-2.02-6.9-3-13-3.85-7.24-5-9-19.516.43-35,0-68.349,4.76-74,7-18.016,7.43-22,9-3.516,14.43-6,18-0.349,12.93,0,11,6.151-11.4,10-14,13.318-19.57,13-21-22.016,2.6-33,5c-63.485,9.57-91.182,40.93-98,46s-10.182,16.6-11,21-3.349,3.76-3-4-27.349,22.6-30,25-10.582,17.95-13,25c-2,5.83-8.537,16.46-10,13s-2.682-10.74,2-10,2.651,31.6,3,36,9.818,25.26,13,26,10.984,14.6,12,18,6.984,10.1,4,10-14.682-11.74-14-8,8.484,11.1,10,12,7.818,7.6,6,9-7.516,3.43-9,1-1.349,1.43-5-1-17.016-29.07-17-39-5.182-15.4-8-17-3.516-28.4-6-26,0.818,22.93-1,24a20.884,20.884,0,0,0-8,8c-2.484,4.57-18.849,5.6-22,6s11.818-35.57,8-35-14.016,35.43-16,37-15.849,9.26-19,9,9.318-23.07,7-21-14.016,20.43-15,22-12.516,7.43-28,9-20.016-.24-16-4,23.151-19.9,12-14-15.016,11.76-19,8-7.516-1.57-4-11c6.515-15.1,59.151-40.9,88-60s42.318-49.07,53-67,19.651-28.74,32-32,29.651-19.4,36-26-14.349,6.26-27,7-15.182,5.43-25,13-15.349,12.6-14,14,34.151-1.4,44-4,27.484-27.4,31-31a14.612,14.612,0,0,1,12-4c3.015,0.57,34.818-20.07,49-26s51.484-20.4,56-23,2.484-5.24-22,0-76.016,37.43-92,43-42.016,16.93-41,14,58.651-59.9,80-74c50.849-32.93,103.651-41.9,120-43s8.651-6.9,5-12,2.151-21.57,5-23,16.151,25.93,21,25-10.849-29.4-9-35,22.984-18.4,29-18-2.682,53.76,0,55,4.15-12.4,8-34,1.82-28.74,5-27,10.82,14.76,7,33-15.68,29.93-8,29,12.32-19.74,16-37-10.02-27.9-13-29-1.85-2.4-21,6-25.016,18.43-34,24-15.016,26.76-9,32-2.878,8.54,17,7c17.15-1.32,67.04,1.25,94,10s34.04,13.25,31,16-3.71,2.5-13-5,8.54-4.5,27,3,24.29,14.25,26,18,9.54,3.75,10,18-10.71,18.25-14,24-15.46,12.25-29,14-31.21,13.5-29,6,24.04-4.5,20-2c-10.04,11.25-26,4-26,4-19.6-8-4.77-14.08,2-23s-16.37-19.48-24-21,13.78-8.21,14-12c0.37-6.32-1.37-10.68-13-14s-7.97-9.28-5-13,3.23-4.88-8-11-20.97-3.08-20-1,5.43,3.52,9,2,7.83-1.48-18-6-17.567,3.32-14,6,8.033,7.32,9,12,6.03,0.52,10,12,0.83,16.72-5,19-46.767-1.08-69,2-26.367-1.68-37-2-17.767-4.88-15-11-2.767-1.68,0-12-27.567,7.72-49,20-47.567,41.52-58,49-0.167,5.92,7,6c30.567,5.68,13.033,9.52,12,13s6.433-.08,7,4,12.345,4.14,13,0,2.145-9.06,10-5,27.145,2.54,31-2,11.145-.66,14-5-2.055-9.26-10-7-12.455-4.46-12-7,34.145-6.46,40-11,1.945-9.66-4-8-6.655,6.54-1,9,4.745,7.94,2,12,7.545,6.94,9,3,9.145-4.26,9-1-2.055,6.14,12,2,3.345,1.54,23,4,25.545-11.66,48-17,37.94-6.66,44-16,5.16-32.86,11.72-33.61c4.41-.51,22.86,3.35,23.28-0.39s-21.66-12.26-13-20,15.34-2.66,23,1,17.34,7.94,11,13c-6.01,4.79-17.66-5.86-15-9s6.14,2.74,13,6,13.54,1.94,22,0,4.34,6.94,2,4,9.34-1.66,21,7,7.94,22.74,4,24-13.06,13.74-8,15,14.54-7.66,8-9-16.06,8.74-35,8-35.46-15.66-31-20,26.14-27.26,38-18c7.55,5.9,18.78,8.24,22.89,7.93C1128.23,1319.75,1159.97,1339.15,1182,1371Z" transform="translate(-566.812 -1197.44)"/>
</svg>
