<svg xmlns="http://www.w3.org/2000/svg" width="784.124" height="677.688" viewBox="0 0 784.124 677.688">
  <defs>
    <style>
      .cls-1 {
        fill: none;
        stroke: #0c3c3a;
        stroke-linecap: round;
        stroke-linejoin: round;
        stroke-width: 1.5px;
        fill-rule: evenodd;
      }
    </style>
  </defs>
  <path id="Kształt_5_kopia_2" data-name="Kształt 5 kopia 2" class="cls-1" d="M1180.76,766.7c8.45,1.373,21.04,10.6,28.03,17.515s6.5,13.112,8.17,16.347c5.33,10.325-4.55,23.537-7.01,35.03-1.27,5.983,1.43,15.69,7.01,18.683,6.07,3.255,4.04,8.016,4.67,15.179,0.55,6.182-1.19,15.385,9.34,15.18s21-35.116,15.18-39.7-19.28,17.429-24.52,24.521-18.7,4.585-21.02-2.335,14.91-7.8,9.34-14.012-15.74-17.72-17.51-5.838,9.94,12.931,18.68,9.341,6.15-13.05,14.01-14.012,19.29-1.373,18.69-9.341-26.55-50.123-44.37-52.545c-10.32-1.4-43.77,4.465-46.71,26.856-2.35,19.18-13.41,26.067-16.35,32.695s4.69,5.049,11.68-4.671-4.65-14.8-14.01-4.671,2.93,16.726-3.51,23.354-37.93,35.7-47.87,32.694,11.69-17.136,10.51-11.676-6.41,10.3-21.02,9.341-27.71-8.671-31.53-16.347-3.5-8.174-3.5-8.174-8.15,9.428,0,17.515,9.65,0.087,9.34-11.677-12.82-1.957-15.18-11.676,9.36-23.267,15.18-26.857,9.65-9.254,19.85-8.173,14.91,8.26,24.52,10.509,3.82,8.26-2.33,10.509-27.72,9.72-28.03,15.179,0.31-10.714-3.5-14.012-16.33,4.174-15.18,1.168,15.78-13.633,24.52-14.012,12.86-8.963,21.02-15.179,36.8-38.447,40.87-44.372,7.61,1.546,2.33,16.347,7.32,6.8,18.69-12.844,11.67-19.85,11.67-19.85,57.53-72.892,63.06-77.066,13.74-6.628,18.68-12.844,8.78-17.429,4.67-31.527-20.12-43.993-18.68-53.713-4.07-26.478-11.68-33.862-23.33-24.143-10.51-22.186,12.57,7.093,24.52,9.342,25.71-1.374,35.03,8.173,39.72,24.316,52.55,42.036,60.73,59.054,63.05,64.222,44.39,11.471,47.88,8.173-16.92-22.974-26.86-26.856-40.56-17.136-51.38-29.192-34.43-42.241-37.36-46.706-53.11-14.8-45.54-4.671,31.25,52.048,22.18,72.395-21,35.409-28.02,35.03,1.48,8.261,11.68,16.348,34.17,46.209,63.05,58.383,92.56,27.818,89.91,30.359,24.25-3.708,30.36-33.862,35.34-95.954,43.2-95.749-6.11,53.508-11.67,84.072-7.87,63.141-5.84,65.389,18.12-1.664,25.69-14.011,13.15-29.4,18.68-33.863,33.59-60.632,30.36-66.557,4.1-45.452,1.17-52.545-2.32-40.2-4.67-47.874-21.59-79.022-30.36-100.419-32.97-62.676-50.21-81.737-54.57-60.924-72.4-68.892-4.36,4.174,2.34,39.7,4.39,59.053-4.67,68.892-45.23,69.563-56.05,77.066,4.4,23.148,14.01,23.353,35.92-21.223,44.37-32.694,19.58,14.974,28.03,57.215-26.84-24.142-18.69-35.03,15.2,27.235,33.87,29.192,45.26,25.483,52.54,37.365,20.45,37.452,4.67,29.192-51.65-38.447-57.21-32.7,25.41,15.85,25.68,19.851-27.13,4.757-26.85,22.185,7.61,57.886,12.84,54.88-0.27-28.521,11.68-30.359,8.77,43.29,5.84,93.413-11.66,50.005-21.02,46.707-19.54,1.838-17.52,4.67-8.73,3.3-26.85,5.839-31.8-24.727-22.19-23.354,15.78,14.1-8.17,10.509-83.18-33.191-99.25-52.544-40.56-35.236-49.05-33.863,11.41,19.354,26.86,30.359,51.11,43.583,68.89,49.043,62.49,13.514,56.05,16.347-49.31-4.876-58.38-4.671-23.34-3.708-31.53,0-23.04-2.249-32.69-1.167-16.92,5.341-23.36,2.335-21-2.249-26.85-9.342-9.33-21.515-15.18-23.353,9.65-4,17.51,5.839,30.09,23.731,33.86,19.85-44.06-35.236-50.21-36.2,8.2-7.5,15.18-3.5,40.89,37.16,53.72,39.7,18.11-.789,12.84-8.174-36.18-30.273-49.04-32.695S1214.63,734,1214.63,734a78.4,78.4,0,0,1,16.34,11.677c7.57,7.211,27.17,22.272,35.03,24.521s25.13,5.633,32.7,1.168,56.94,3.589,72.39-17.516,41.47-25.893,23.36-26.856-65.67-15.385-78.24-24.521-31.8-40.489-25.69-38.533,24.54-6.043,18.69-9.341-21.59-10.714-5.84-16.347,23.66-.5,36.2,4.67,18.99,6.217,33.86,16.348,36.21,18.185,49.04,18.682,2.06-19.763-15.18-35.03-16.33-26.769-22.19-32.694-17.49-26.186-21.01-33.863-21.88-22.391-22.19-47.874c-1.19-9.428-14.58-17.72-14.01-21.018s-17.79-10.13-28.03-14.012-8.73-8.379-1.16-12.844,1.77-4,7-4.671,48.19-32.316,61.89-85.239,7.9-87.781-4.67-93.414-26.55-7.8-19.85,10.509-37.64,155.97-47.88,161.138-23.91-21.223-30.36-14.012-22.75,24.316-42.03,24.521-39.97-5.752-39.7-15.179,10.53-13.926,23.35-5.839,23.08,10.012,31.53,5.839-25.67-21.516-12.85-24.521,28.92,13.223,44.38-1.168,18.11-31.732,28.02-39.7,4.11-28.813,16.35-39.7,16.95-40.2,12.84-40.868,1.48-21.224-4.67-25.689-14.58,13.807-23.35,17.515-17.5,19.353-16.35,28.024-6.4,17.31-11.68,21.018-11.65,17.309-12.84,26.856-14.29,24.024-29.19,26.856-23.92,2.13-12.85-4.67,22.79-27.354,25.69-33.862,2.06-20.932-10.51-14.013-32.97,7.093-37.36,2.336,0.58-17.807-12.85-8.174c0,0-2.77,4.087-10.51,5.838s-8.61,2.336-11.67,5.839-20.87,4.378-35.03,1.167-25.84,2.044-24.52,17.515-10.95,34.738-19.85,32.695-9.49-1.46-12.85-1.168-15.03-7.006-16.35-8.173,7.16,11.676,14.02,15.179,9.48-2.627,14.01-2.335,10.36-2.044,1.17-24.521,1.31-26.564,12.84-30.359,23.21-.584,22.19-9.342,9.78-57.215,54.88-59.551c11.24,1.168,46.85,17.807,58.38,10.509S1240.46,286.5,1259,276.28s27.58,0,26.85,4.67,10.07,7.882,1.17,21.018-20.58,24.813-28.02,21.018-7.74-8.174-8.18-12.844,1.9-7.59-4.67-8.174-32.84,7.882-23.35-5.838,19.7-14.888,26.86-23.354,47.14-18.974,60.71-30.359,37.52-18.682,33.87-19.85-12.12,1.459-21.02,4.671-31.38,1.167-49.04,1.167-33.14,4.379-38.54,7.006-8.32-4.378-18.68-3.5-10.36-17.807-32.69-17.515-24.09-.583-28.03-2.335-25.54-1.752-43.2,3.5-20,12.26-25.69,10.509-15.62,3.211-22.19,1.168-31.67-7.59-65.385-8.174-55.026.876-54.88,5.838,24.083,11.969,32.694,15.18,24.371,22.769,25.691,24.521,8.32,1.459,11.67-1.168-8.02-14.3-17.51-17.515,3.65,4.087,8.17,15.18,9.49,32.111,14.02,35.03,25.41-15.195,16.34-14.012c-26.85,3.5-10.31,3.988-14.01,23.353s-6.37,23,0,30.359c4.07,4.705,14.83,17.354,21.02,11.677,2.72-2.5,10.07,2.627,24.52,5.838s6.57-15.179,4.67-43.2c-0.46-6.727-.19-9.635,3.5-10.509s2.53-11.581,9.34-11.677,10.71-6.131,8.18-12.844,0.19-7.688,5.84-12.844,3.69-20.922,10.51-25.689,4.86-11.97,14.01-14.012,9.92,3.6,7,10.509-13.04,10.216-14.01,14.012,2.92,10.216,0,14.012-2.14,8.659-5.84,8.174,0.2,6.323-3.5,9.341-9.54,11.773-3.5,12.844,13.43,2.042,9.34,3.5-10.32,5.545-10.51,8.174-6.42,7.88-9.34,11.676,10.7,5.156,11.67,11.677-0.58,11.384-7,11.677-4.09-3.8-8.17-2.336-6.82-4.963-2.34-8.173,2.53-4.575-2.34-7.006-4.08-9.246,1.17-12.845,9.93-8.855,3.51-10.509-22-3.017-18.69-12.844,9.15-10.023,8.18-12.844,0.58-12.748,4.67-15.18,6.42-11.97,11.67-19.85-10.31-4.964-14.01,0-17.71,20.725-15.18,23.353,3.7,11.773-1.17,12.844-10.31,3.989-14.01,2.336-14.98-.293-15.18-3.5-0.58-8.856,8.18-14.012,16.93-.682,12.84,2.335-10.31,25.4-3.5,23.353,14.59,5.156,9.34,5.839-30.17-5.353-33.86,11.677,0.58,6.712,7,2.335,23.94-9.635,25.69-4.671-2.14,11.384-7,9.341-3.7,7.881,0,9.342,8.75,4.767,8.17,9.341,1.36,13.33-2.34,14.012,2.92,4.767,5.84,4.671-1.75-10.413-8.17-10.509-11.87-2.629-9.34-8.174-1.75-11.191-9.34-9.341-15.38,14.5-2.34,16.347,11.09,6.324,15.18,11.677,7.2,14.886,9.34,29.192-14.21,30.844-4.67,29.191,15.37,4.377,16.35-1.168,0.97-14.694,18.68-21.018,21.21-3.017,23.35-4.67,8.47,0.874,4.67,8.173-6.13,36.489-16.34,38.533-28.9.875-26.86,7.006-0.29,45.83-16.35,46.707-1.46-30.653-11.67-42.036-22.48-26.566-11.68-44.371,9.63-25.4-1.17-31.527-6.27,8.757,0,10.509,8.32-6.131,7.01-14.012,4.82-11.677-3.5-14.012-18.54-7.882-17.52-5.839,4.23,14.012,3.5,31.527,6.86,43.2,11.68,45.539,10.36,19.559,21.02,19.851c1.63,0.044,12.7,13.718,5.84,21.017s-8.91-7.007-7.01-12.844,9.33-12.8,11.68-9.341c2.77,4.087,12.99,7.59,28.02,10.509s31.09-3.211,36.2-12.845,24.49-17.2,8.17-28.023c-18.92-12.553-16.78-28.316-5.84-26.856s27.59,0,32.7-5.839-6.57-24.521,9.34-30.359,23.5-4.087,25.69,3.5,31.96,7.59,47.87,0,27.59-23.062,26.86-32.695-10.07-1.168-17.52-8.173,10.37-12.553,18.69-10.51,15.91-7.881,17.51-14.011,13.28-21.31,23.36-26.857,23.49-18.974,18.68-18.682-24.38,16.639-42.04,26.856-68.74,6.13-77.06,15.179-5.99.292-8.18-10.508,14.45-22.186,7.01-23.354-23.5,7.59-23.36,18.683,5.7,24.229-11.67,26.856-21.17-3.211-24.52,2.336-24.67,0-15.18-7.006,10.36-9.05,10.51-11.677,22.04-2.919,18.68-11.677,1.31-17.807,11.68-22.185-5.99-19.267-18.69-5.839-10.65.584-16.34,4.671-0.44,11.677,5.83,15.18-19.41,5.546-21.01,16.347-20.58,12.552-15.18,17.515,13.86,16.055,4.67,17.515-8.61,6.422-4.67,7.006,6.13,11.383-2.34,15.179,1.46,12.552,30.36,1.168,51.09-13.721,50.21-2.335-13.14,6.713-19.85,4.67-44.08,3.21-46.71,17.516,6.27,1.794,10.51,7c10.22,12.554,14.79-23.36,17.52-7,2.77,16.605,2.65,24.675-6.24,20.507-30.79-14.45-47.48-1.463-59.15-13.5-11.57-11.931-14.45-4.086-12.85,2.336s1.03,13.428-8.17,12.844-15.33-.876-18.68-2.335,1.31,10.8-1.17,19.85-10.07,21.6-7.01,25.689,1.03,16.347-7,16.347-10.07,25.689-8.18,28.024,14.16,9.925,17.52-1.168-5.4-25.98-9.34-16.347-8.03,25.98-5.84,30.359-0.44,18.391-5.84,16.348-4.82-8.466-10.51-11.677-6.57-9.925-10.51-11.677-3.94,4.963-1.16,9.342,7.73,33.57,0,29.191-13-28.024-4.675-28.024,18.245,16.931,15.175,24.521-9.19,6.13-5.83,12.845,15.91,14.595,15.18,19.85,6.56,11.385,10.5,22.185,11.24,38.825,8.18,45.54,7.15,24.52,11.68,38.532,12.99,21.018,22.18,16.348,8.32-13.72,17.52-21.018,17.66-22.186,33.86-23.354,26.42-8.173,30.36-32.694,17.07-94.873-10.51-78.234-49.48,54.88-51.38,63.054-6.28,28.9-4.67,39.7,1.17,10.509,1.17,10.509-1.61,12.844-15.18,22.185-12.7-56.923-9.34-68.892,20.58-2.043,29.19-23.353,3.65-20.142,10.51-28.024,8.9-23.937,7-25.689,5.4-17.515-7-16.347-17.66,25.688-12.85,26.856,21.46-11.093,24.52-21.018,2.49-9.925-10.5-9.341-14.75-1.752-12.85-4.671-0.44-9.049-4.67-9.341-10.95,13.72-18.68,10.509-0.44-18.683,9.34-16.347,10.07,8.465,7.01,14.012,0.14,20.434,1.16,22.185-1.31,31.527-8.17,32.7-4.23-12.844-9.34-15.18-20.87-10.217-24.52,3.5-8.61,13.428-10.51,15.18-5.4,14.6,5.84,17.515,8.9-2.335,14.01,0,11.82-1.752,15.18-2.335,10.94,4.962,15.18-4.671-5.69-9.925-9.34-7.006,12.11,7.881,16.34-5.838-6.86-13.429-12.84-26.857-12.41-28.316-15.18-22.185-8.9,5.546-10.51,1.167-4.23-11.677-5.84-2.335-3.65,1.46-8.17,11.677-15.33,14.012-18.68,12.844-3.51-1.168-3.51-1.168,1.9,31.235,8.18,37.365,24.66,45.248,28.02,61.887-3.36,21.018-3.5,28.024,11.82,29.191,18.68,29.191,12.41-15.763,12.84-33.862,5.99-7.3,23.36-32.695,45.97-59.259,40.87-67.724,9.19-23.354,17.51-24.521,4.82-7.006,1.17-9.341-3.36-14.013-3.5-18.683,6.56-11.093-7.01-9.341-7.74-4.087-15.18,1.167-32.55,9.925-37.37,7.006,3.65-17.223,8.18-22.185,7.44-33.863,14.01-29.192,14.74,22.769,11.68,30.359,13.28-6.422,17.51-8.173,18.25,7.59,29.19-1.168,32.26-23.353,29.2-31.527,23.2-20.434,29.19-28.024,24.08-32.987,14.01-35.03-24.96,2.043-35.03-1.168-4.23,19.267-11.68,24.521,3.07,31.235-8.17,31.527-20.87,28.9-31.53,30.36-15.62.292-18.68,5.838,7.44,9.341,14.01,15.179,20.58,6.715,32.7,2.336,39.55-20.142,52.54-17.515,5.69,9.049-2.33,11.677,3.94-12.553,11.67-17.515,22.33-9.926,22.19-38.533,10.36-34.154,19.85-40.869,1.9-35.9,0-44.371-1.32-22.477,7-19.85,58.41,7.092,84.08,28.024,38.55,45.333,42.03,64.221,40.6,37.16,58.38,75.9,56.36,114.225,50.21,142.455-18.08,39.2-17.51,31.527,2.65-41.074-10.51-58.384-0.86-7.795,16.35,14.012-10.2,42.123-11.68,52.545-14.58,82.7-18.68,84.072-14.29,33.365-11.68,43.2,0.6,38.036-4.67,39.7-6.4,15.558-4.67,28.023,1.48,29.279-9.34,31.527-16.33,8.261-23.35,11.677-3.2-24.142,5.83-22.186-0.85,20.229-15.18,22.186-23.04,2.422-22.18-4.671,3.52-25.018,11.68-25.688,16.36,10.3,9.34,18.682-28.88,16.726-35.03,15.18-7.28-17.428-2.34-22.186,7.9,12.931,2.34,15.18-15.75-13.05-14.01-22.186,7.02-12.466,18.68-14.012,27.16-5.459,36.2-2.335,26.87,13.807,12.84,11.677-35.6-8.963-35.03-18.683,6.73-13.633,5.84-17.515-1.17-4.67-1.17-4.67,7.9-21.224,8.17-31.527,3.82-83.11,3.51-95.749-3.2-28.521-9.34-31.527-26.55-36.111-31.53-47.874-39.98-39.03-52.55-44.371-29.46-15.678-32.69-22.186-25.09-22.1-40.87-19.851-47.56,7.677-65.39,1.168-29.46-16.261-30.36-8.173-3.77,11.179-3.5,18.682-4.07,74.817-1.17,82.9-15.74,73.066-21.02,94.581-16.62-12.465-21.01-24.521-9.91-22.391-14.02-26.856-8.74-12.466-1.16-9.341,13.15,12.055,19.85,2.335,17.53-21.223,22.18-21.018-23.33,43.874-26.85,44.371-6.41-4.292-14.02,2.336-56.35,35.1-65.39,70.059c-11.78,45.593-32.98,62.848-80.564,36.2s-31.818-80.191-95.749-88.742-92.536,33.072-95.748,45.539,4.379,31.9,14.012,19.85,4.379-30.566,63.053-35.03,34.156,59.344,110.929,91.078,106.967-14.242,112.1-35.03c5.86-23.756,4.98-27.937,22.18-42.036s32.43-22.1,36.2-15.18,6.73,6.8,3.5,18.683-18.37,55.259-21.01,56.048-15.75-25.894-2.34-28.024,35.93,2.714,46.71-11.677,21.33-120.183,29.19-119.1,18.41,54.091,10.51,60.719-4.65-27.062,8.17-26.856,21.33,24.9,17.52,29.191-46.69,64.6-50.21,70.06-6.7,17.018-1.17,12.844,4.11-19.471-8.17-1.167-9.91,26.359-9.34,30.359,11.69,29.57,19.85,32.695,26.29,0.962,24.52,5.838-14.87,16.726-19.85,5.838-0.76-24.34,0-30.359c0.98-7.868-1.87-24.148-9.35-29.192S1172.32,765.326,1180.76,766.7Z" transform="translate(-776.406 -210.25)"/>
</svg>
