<svg xmlns="http://www.w3.org/2000/svg" width="18.844" height="25.562" viewBox="0 0 18.844 25.562">
  <defs>
    <style>
      .cls-1 {
        fill: #fff;
        stroke: #0c3c3a;
        stroke-linecap: round;
        stroke-linejoin: round;
        stroke-width: 1.5px;
        fill-rule: evenodd;
      }
    </style>
  </defs>
  <path id="ICO_phone" data-name="ICO phone" class="cls-1" d="M323.255,509.861c0.135,0.3.276,0.6,0.433,0.881a15.156,15.156,0,0,0,4.049,4.446l0.609-.972c0.724-.791,1.454-1.679,2.219-0.931l3.678,3.213a2.02,2.02,0,0,1,.075,2.788l-0.971,1.879a1.862,1.862,0,0,1-2.695.077s-1.425.925-2.351,0.019c-0.21-.206-0.4-0.415-0.572-0.624l-0.1.1a17.682,17.682,0,0,1-8.175-7.061c-0.16-.287.624-1.541,0.487-1.836Zm1.43,2.562c-0.184-.272-0.364-0.546-0.521-0.827a15.755,15.755,0,0,1-1.7-5.851l1.118-.059c1.024-.253,2.133-0.463,1.889-1.522l-0.851-4.9a1.906,1.906,0,0,0-2.3-1.461l-2.058-.07a1.975,1.975,0,0,0-1.412,2.376s-1.612,1.3-1.316,2.577c0.067,0.291.149,0.563,0.236,0.825l-0.133.039a21.8,21.8,0,0,0,2.29,10.981c0.16,0.287.332,0.564,0.51,0.834Z" transform="translate(-316.75 -496.969)"/>
</svg>
