<svg xmlns="http://www.w3.org/2000/svg" width="224" height="244.5" viewBox="0 0 224 244.5">
  <defs>
    <style>
      .cls-1 {
        fill: none;
        stroke: #00ffea;
        stroke-linecap: round;
        stroke-linejoin: round;
        stroke-width: 1px;
        fill-rule: evenodd;
      }
    </style>
  </defs>
  <path id="Kształt_18" data-name="Kształt 18" class="cls-1" d="M806.194,254.421c1.329,3.127,2.855,4.168,2.724,10.116s1.1,15.452,3.891,15.174,8.691-3.418,7.393-3.89-4.636,1.25-5.058,1.945,3.34-.4,6.614,1.556,2.076,5.628,4.669,4.67,3.341-2.349,3.113-1.168,0.131,6.892-1.167,7-1.815-2.641.389-5.448-0.161-4.683,4.28-1.167,4.605,7.281,4.28,10.506,3.34,5.919,5.447,5.836,8.593,0.764,12.062-4.669,8.5-31.725,8.559-22.178-1.814,22.747,1.168,22.956-0.064,1.445-3.891,8.171-20.88,34.225-27.236,54.472-8.04,26.736-9.728,21.011-1.328-10.811-.389-13.618-2.106-1.182-4.669-.389a22.63,22.63,0,0,1-2.723.778,49.322,49.322,0,0,0-10.117-4.669c-5.286-1.639-14.168-4.586-14.007-6.225s5-6.824,2.724-10.895-6.289-10.228-6.615-15.953,7.037-8.963,4.669-12.839c-1.679-2.749-2.2-2.836,3.113.778s15.694,0.375,19.065,4.669c3.081,3.924,8.113,7.428,13.229,4.669,8.617-4.648,7.573-10.961,3.5-12.062-2.465-.666-3.515-1.183-1.556-4.669,2.453-4.365-1.522-4.737-1.946-5.058s0.8-1.19-.389-2.335c-1.111-1.07-1.716-.408-2.334,0s0.992-.233-1.167.779-4.066,4.279-5.448,6.225,3.249-.934,4.28-1.946,3.74-1.44,3.113-3.89c-0.535-2.092-.233-1.917-0.778-2.724-1.44-.905-1.216-1.731-1.946-2.335-0.379-.313-0.836-0.856,0-1.945s2.2-11.128-2.723-1.167c-1.654,4.2,1.342.389,2.334-1.556s1.887-4.358-.778-5.448-14.921-3.579-16.342-4.669-2.859-2.8-2.723-3.5-2.471-4.357-3.113-4.669,2.51,0.779,2.724,1.557-7.062,1.4-9.728,2.723-5.349,9.416-5.836,9.338,1.576-8.793,2.724-9.727,5-3.657,5.836-4.28,3.6,1.635,3.113,4.28,3.054,7,2.334,7.782-7.606,4.436-8.56,4.28,5.078-1.089,7-1.556,3.132-1.09,3.5-2.335,0.778-2.335.778-2.335-2.393,2.024-4.28.39-6.05-1.4-7,.778,6.946,0.545,5.448-3.113c-1.343-3.035,4.766-.856.778-8.56-1.343-1.556-8.7-6.848-12.451-8.171s-15-3.19-20.622-3.112,1.5-1.79,1.946-4.67-3.249-4.591.389-3.89,5.622,5.914,3.891,7.392-8.774,2.491-9.338,5.448,4.455,21.555.389,28.792-9.6,18.313-7.393,24.124-1.174,9.882-7.393,14.007,11.926-2.7,14.008-10.9,1.29-31.879-.39-35.018-8.955,27.781-30.348,34.629a15.043,15.043,0,0,0-8.171,7s3.5-12.166,7-17.509,21.783-11.777,24.9-25.68-1.693-23.968,2.334-24.513,8.943-7.626,5.059-8.949-19.072.675-24.513,7.393-15.7,10.4-20.233,18.676-8.955,17.8-8.949,21.789-4.934,6.381-5.058,8.56a116.643,116.643,0,0,1-1.945,17.12c-1.42,6.329-.785,22.593,1.945,30.349s6.089,20.777,4.669,26.847a29.642,29.642,0,0,0,0,12.062s-3.119-3.346-3.112-7,8.553-13.592,10.116-23.734,2.976-30.972,1.556-37.742-1.556-6.614-1.556-6.614-5.324-18.132,4.28-35.018c6.621-8.716,3.236-.752,5.058,6.225s3.755,10.921.778,19.066,0.642-6.2-2.334-12.451-4.416-13.852,0-20.233,17.5-17.483,16.73-7.392-8.177,11.309-7.392,20.621,14.39,7.808,4.28,22.178-7.27,22.334-6.615,29.571S721.5,363,721.762,378.54s0.772,21.944,10.506,22.956-5.454-4.643-9.728-4.669-9.993-9.312-7.392-16.731,5.57-14.629,5.447-19.065,4.274-15.149,5.836-17.509-2.341,13.125-.778,26.847,6.219,27.651,15.953,27.625c5.843-.155,7-1.167,7-1.167s-10.9.156-12.45-7,7.516-.363,15.952-3.5,9.338-7,9.338-7-8.307,4.176-14.007,1.167,0.123-6.458,2.335-3.5,12.055,0.415,15.174-7.782,1.291,1.712,0,4.28-5.713,2.36-10.894-.778-13.366-12.814-13.618-19.455,4.662-20.466-2.724-26.069c-1.55-1.582.642,4.825-1.556,8.949s1.29,23.242-.779,29.571-2.081,13.255,4.669,16.342-3.9-3.217-1.167-8.949,1.161-4.125,8.949-.778,16.854-9.183,16.342-17.9-0.4-15.408,3.891-14.786,11.666-1.53,12.84,0,5.051,8.456.389,9.727-7.529-6.329-5.836-7,7.256-4.384,8.17-6.226-3.638-7.5-6.225-7-4.805-.234-5.447-1.557-0.778-1.167-.778-1.167a14.179,14.179,0,0,0-1.557-6.225c-1.55-2.62-2.73-3.217-2.723-5.448s4.143,1.194.389,6.226-3.379,11.18-.389,13.229,10.369,1.582,12.45,2.723,7.516,7.289,6.226,12.062-6.706,4.591-3.891,6.615,13.4,5.109,19.454,6.614,18.456,5.5,18.288,8.56-3.853,10.3-5.448,16.342-2.166,9-5.058,3.112-9.559-13.566-15.953-18.676-16.822-9.675-16.341-12.061,0.946-2.154,10.894,2.334,23.254,10.946,25.291,12.451,6.264-3.061,7.393-8.171,3.67-24.98,6.614-28.4,11.452-10.454,11.284-14.4c-0.039-.5-5.668,4.851-14.4,8.949s-15.491,7.054-24.123,5.059c-6.3-1.458,5.615,6.666,10.894,5.447s17.678-9.028,23.346-14.4,6.264-8.508,4.669-12.45-6.836-6.693-7.782-8.949-7.224,6.017-20.233,3.891-9.738-6.654-17.509-7.393,1.595-10.35,9.728-9.727,10.446,6.283,4.28,7.781-18.931-2.957-22.956-7-4.413-8.891-10.506-8.171-7.33,4.824-4.28,6.225,3.856,4.241,3.891,7.393,0.451,5.7,4.669,8.949,8.622,11.147,6.615,14.785-0.522-.33-5.059-1.556-7.038-1.6-6.614.778,1.813,3.463,2.724,3.5,3.953,3.171,1.945,4.669-0.716,3.949-5.447,1.946-4.218-6.557-4.28-7.782-5.385,1.809-8.56,7a19.109,19.109,0,0,0-.778,17.9c2.758,5.584,8.816,6.381,10.116,9.728s1.167,3.5,1.167,3.5,1.424-6.361,0-8.17,1.035-4.708,3.5-4.28,1.132,4.435,4.28,4.28,4.926-1.109,7.782,0,2.787-2.029,2.334-6.615,3.564-5.486,1.167-8.949-1.3-2.373,2.724-2.724,1.59,0.959,7,5.448,8.4,7.183,12.061,4.669,11.415-7.018,10.117.778-2.009,19.829,3.5,10.5,18.028-33.378,24.512-43.189,19.683-26.569,27.625-34.239,21.823-20.345,24.9-21.011-3.176.277,3.113-.778,10.539-1.766,12.84,1.556,1.784,4.266,3.5,5.058,4.8,5.822,3.112,6.226-13.876,3.779-17.12,6.225-4.052-2.349-5.836-6.225-5.706-4.684-2.335-7,6.94-2.057,7-3.5-2.2-4.78-4.669-9.727-4.636-13.34-6.615-14.007-5.511,7.475-9.727,7.393-13.293-7.31-15.174-13.229-3.955-13.049-11.284-15.175c-1.3-.569,1.979,3.876,1.946,5.447s-6.484-5.558-4.669-2.334,3.049,9.713,3.112,13.229-1.912,10.2-1.945,11.283-2.787,4.266-4.28,3.891-3.371-3.419-2.335-4.28-1.425-3.711-.778-5.836,2.076-2.252,2.724-4.28,0.131-8.769-4.28-8.171c-2.271.6-4.052,1.639-5.447,0s-2.01-6.337.389-8.171,7.134-3.613,9.727.778,4.411,15.841,2.724,18.677-1.621,1.542-2.335,1.167-2.4-2.252-2.334-3.891-0.453-3.711-1.557-3.113-3.079,2.126-2.334,3.5,1.589,5.627.389,5.447-3.469-4.489-3.113-6.225-1.231-4-2.334-4.28-5.122-8.964-2.724-12.84,5.967-4.684,10.116-3.5,6.94,2.807,8.171,1.946,13.165,0.861,16.342,9.338,0.422,17.689-3.5,21.789-6.289,5.238-5.836,9.727-3.08,43.855-8.56,46.3-13.78,2.32-16.342-1.557-3.857-7.6-6.225-7.781-6.776-3.906-6.615-5.448-0.258-1.181-1.167-1.556-3.858-6.143-5.058-6.226-6.29,2.612-8.171,2.335-3.955-1.668-3.891-5.058a80.893,80.893,0,0,0-1.167-11.284c-0.326-2.028.228-7.8-1.168-8.949s-2.009-2.446-3.112-2.334-2.885-1.571-2.335-3.5a5.789,5.789,0,0,1,3.5-4.28c2.4-1.25,6.551-1.279,7.393-.778s-5.609,1.25-7,2.723-0.647,3.39-1.556,3.891-3.469-1.279-4.28-3.113a22.522,22.522,0,0,1-1.168-9.338c0.356-3.1-1.814-9.352-1.945-13.229s2.076-13.438,8.56-14.4c3.955-.666,3.243,12.047,7.393,14.786s6.356-2.739,8.949,1.945,7.718,8.059,12.061,7.393,5.967-1.863,4.669-1.168a1.606,1.606,0,0,1-.714.116c-2.573-.006-7.084-2.468-10.569-7.119-3.925-5.238-8.235-8.088-11.284-7.393s-7.262-8.964-13.229-3.891-3.273,12.339-10.116,10.117-9.11-10.52-8.171-16.342,1.784-8.964.389-9.338,1.2-3.808,6.615-7.782,33.689-29.293,43.967-29.571c1.717-.083.909-1.765,5.058-1.945s-2.2,4.849-8.171,10.116-37.222,29.751-36.963,35.018,0.519,14.771-2.335,14.785-2.2-8.866-4.28-14.007-2.787-8.282,0-5.836,7.524-1.766,13.618-9.338,30.869-22.971,33.462-27.236,4.9-6.727,11.283-7.393,27.367,0.958,37.353,15.953,17.348,37.143,15.952,49.414,0.229,18.175-.389,17.12-3.468-6.727-5.058-7-4.538,4.655-8.171,3.5,10.247-34.06-5.447-51.36-30.9-19.274-28.4-15.174,19.682,13.117,19.065,24.9-10.277,16.035-19.454,8.559-1.912-31.141-17.509-23.345-27.787,21.775-24.124,28.015,12.1,7.961,17.509,8.559,1.882,11.95,7.393,13.618,14.527,17.009,7,24.9-18.642-8.283-22.567-1.556,0.131,17.98,6.226,19.065-4.539-24.138-7-24.124-3.76.959-5.447,4.67c-0.812,2.64-1.426,4.071-1.946,4.28s2.563,0.083,3.5-2.724,2.757-6.726.389-6.614-6.97,1.736-6.225,3.5S804.866,251.294,806.194,254.421Z" transform="translate(-700.688 -157.688)"/>
</svg>
