<svg xmlns="http://www.w3.org/2000/svg" width="3699" height="596" viewBox="0 0 3699 596">
  <defs>
    <style>
      .cls-1 {
        fill: none;
        stroke: #0c3c3a;
        stroke-linecap: round;
        stroke-linejoin: round;
        stroke-width: 1.5px;
        fill-rule: evenodd;
      }
    </style>
  </defs>
  <path id="_1" data-name="1" class="cls-1" d="M204,566s-12.16-31.24,15.232-43.41,14.814,24.5,9.409,45.591c-5.64,22.01-23.993,27.338-39.207,26.727-11.51-.463-32.028-4.572-34.434-21.908s19.589-45.427,26.593-31.545-21.79,23.625-29.8,1.572,27.5-39.934,37.638-39.3-17.085,20.7-28.229-1.572,24.586-34.095,39.207-36.16,42.957,2.738,53.322-3.144,50.961-25.1,81.937,5.851S355.492,489.5,315,509s-50.218,4.766-68.72-18.421c-20.036-25.108-65.714-25.627-98-14.993-23.162,7.628-10.652-19.208-43.527-17.454S26.276,487.6,31.039,506.868s25.93,17.561,40.775,28.3,39.372,53.945,56.458,53.453S154.218,558,143.523,544.032,124.6,522.709,120.43,533.594c-5.221,13.623,17.433,20.356,23.525,6.289,3.022-6.981,12.123-21.61-11.078-43.024-8.205-7.573,5.363-18.51,12.646-10.429,9.161,10.166,8.459,27.856-7.842,20.438-15.693-7.142-23.08-22.312-42.991-24.875-33.629-4.33-56.989,12.79-54.242-11.284s31.307-40.159,32.934-59.742,6.439-43.752,14.114-48.736,10.938,67.439,84.686,64.458c37.32-1.508,93.754-39.367,86.643-59.174s12.159-30.438,12.159-30.438-2.075-39.261-31.366-7.861-124.4,44.512-159.964,17.294S15.074,265.026,18.493,239.6,31.2,211.573,27.9,201.873s2.854-47.347-1.568-72.319S5.664,63.342,13.788,58.808s57.519,47.881,62.731,69.174S56.745,149.361,57.7,165.713s-7.689,19.9-12.546,14.149,6.649-18.731,28.229-20.437,8.889-22.551,59.595-29.871,96.936,53.362,123.893,44.02,3.289-19.181,0-12.577,12.7,25.063,21.956,22.01S280.5,170.255,285.1,161s-11.092-15.447-6.273-31.443,15.793-48.686,6.273-70.746-21.173-63.734-45.48-17.293-31.927,66.08-18.819,80.179,37.525,59.941,15.683,67.752-39.321-14.922-72.141-3.294C140.757,198.881,148.084,239.416,172,239c111.817-1.948,29.217,82.7-8,84-11.085.389-9.641-11.965-33-15-15.4-2-24.063,3.138-39,13-9.775,6.453-29.317-5.764-40-19-18.257-26.1-19.537-42.892,2-52,18.765-5.294,28.348-11.519,33.5-22.973,0,0-2.066-20.293-14.321-19.77-11.067.916-13.2,12.829-6.614,19.01C74.226,230.634,78.126,225.642,79,218c1.129-9.87-6.193-14.162-15.678-9.466-5.221,2.584-10.332,11.405-8.647,15.562,1.843,4.546,4.208,6.76,10.269,9.54,13.248,6.078,31.68-20.716,50.783-30.191s29.294,28.341,59.6,22.01c9.916-2.963,19.877-16.8,18.815-25.154-5.766-5.209-25.866-12.076-34.365,1-10.515,16.177,13.4,25.315,18.226,11.7,5.013-14.148-8.34-23.314-18.363-15.272C150.958,200.83,143.055,214.487,134,231c-5.651,10.3-25.261,18.043-34,15-9.9-3.448-18.829,2.037-12.5,10.9,4.884,6.832,5.759,1.165,9.4,9.433s6.273,7.86,6.273,7.86,6.078,4.433,9.274-8.861c3.867-5.657,17.777-8.165,17.387-16.293s-7.539.165-15.546,2.144S101.6,267.489,107,288c3.419,12.983-12.7,11.943-14,23-0.75,7.822,2.106,10.284,9,14,12.381,4.449,28.619,7.853,45.091-6.789,13.528-12.026,18.657-32.475,9.41-27.294-8.941,5.011-13.66,8.762-25.093,6.567-6.815-1.307-25.151-8.94-36.07,0S59.881,294.9,57.7,275.763s16.6-21.5,31.365-40.875c18.829-24.706-1.851-41.058-18.819-39.3s-25.158,18.246-40.185,7.293c-9.449-6.887-10.507-16.459-10-32.447s-1.179-51.613-9.41-75.463-10.812-46-6.273-48.736,30.859,5.433,54.89,33.015,34.892,37.325,37.639,42.447,9.8-1.08,28.229-6.288,34-3.551,42.344,0,19.656-2.652,26.66-15.722,30.635-71.827,47.048-84.9,16.073-20.395,31.366-4.717,30.859,47.881,32.934,73.891,2.4,31.935,6.273,40.876,5.99,39.571,4.7,56.6,7.558,40.02-3.137,67.6-28.736,51.923-14.115,80.179,25.482,21.154,40.776,56.6,41.694,43.945,62.14,73.324-0.955,63.388-26.661,71.88-30.609,9.358-49.594,13.582S282.421,560.98,265,573C234.09,594.327,212,593,204,566Z"/>
  <path id="_2" data-name="2" class="cls-1" d="M615,566s-12.16-31.24,15.232-43.41,14.814,24.5,9.409,45.591c-5.64,22.01-23.993,27.338-39.207,26.727-11.51-.463-32.028-4.572-34.434-21.908s19.589-45.427,26.593-31.545-21.79,23.625-29.8,1.572,27.5-39.934,37.638-39.3-17.085,20.7-28.229-1.572,24.586-34.095,39.207-36.16,42.957,2.738,53.322-3.144,50.961-25.1,81.937,5.851S766.492,489.5,726,509s-50.218,4.766-68.72-18.421c-20.036-25.108-65.714-25.627-98-14.993-23.162,7.628-10.652-19.208-43.527-17.454s-78.472,29.464-73.709,48.736,25.93,17.561,40.775,28.3,39.372,53.945,56.458,53.453S565.218,558,554.523,544.032,535.6,522.709,531.43,533.594c-5.221,13.623,17.433,20.356,23.525,6.289,3.022-6.981,12.123-21.61-11.078-43.024-8.2-7.573,5.363-18.51,12.646-10.429,9.161,10.166,8.459,27.856-7.842,20.438-15.693-7.142-23.08-22.312-42.991-24.875-33.629-4.33-56.988,12.79-54.241-11.284s31.306-40.159,32.933-59.742,7.439-43.752,15.115-48.736,9.937,67.439,83.686,64.458c37.32-1.508,93.754-39.367,86.643-59.174s13.159-30.438,13.159-30.438-2.075-39.261-31.366-7.861-124.4,44.512-159.964,17.294S427.074,265.026,430.493,239.6s12.711-28.031,9.409-37.731,2.854-47.347-1.568-72.319-21.67-66.212-13.546-70.746,58.519,47.881,63.731,69.174-19.774,21.379-18.819,37.731-7.69,19.9-12.547,14.149,6.649-18.731,28.229-20.437,8.89-22.551,59.595-29.871,96.936,53.362,123.893,44.02,3.289-19.181,0-12.577,12.7,25.063,21.956,22.01S692.5,170.255,697.1,161s-11.092-15.447-6.273-31.443S706.952,84.2,696.1,58.808c-9.443-22.093-20.174-63.734-44.48-17.293s-31.927,66.08-18.819,80.179,37.525,59.941,15.683,67.752-39.321-14.922-72.141-3.294C552.757,198.881,560.084,239.416,584,239c111.817-1.948,29.217,82.7-8,84-11.085.389-9.641-11.965-33-15-15.4-2-24.063,3.138-39,13-9.775,6.453-29.317-5.764-40-19-18.257-26.1-19.537-42.892,2-52,18.765-5.294,28.348-11.519,33.5-22.973,0,0-2.066-20.293-14.322-19.77-11.067.916-13.2,12.829-6.614,19.01,7.665,4.367,11.565-.625,12.439-8.267,1.129-9.87-6.193-14.162-15.678-9.466-5.221,2.584-10.333,11.405-8.647,15.562,1.843,4.546,4.207,6.76,10.268,9.54,13.248,6.078,31.681-20.716,50.783-30.191s29.294,28.341,59.6,22.01c9.916-2.963,19.877-16.8,18.815-25.154-5.766-5.209-25.866-12.076-34.365,1-10.515,16.177,13.4,25.315,18.226,11.7,5.013-14.148-8.34-23.314-18.363-15.272C562.958,200.83,555.055,214.487,546,231c-5.651,10.3-25.261,18.043-34,15-9.9-3.448-18.829,2.037-12.5,10.9,4.883,6.832,5.758,1.165,9.4,9.433s6.274,7.86,6.274,7.86,6.077,4.433,9.273-8.861c3.867-5.657,17.777-8.165,17.387-16.293s-7.539.165-15.546,2.144S513.6,267.489,519,288c3.419,12.983-12.7,11.943-14,23-0.75,7.822,2.106,10.284,9,14,12.381,4.449,28.619,7.853,45.091-6.789,13.528-12.026,18.657-32.475,9.41-27.294-8.941,5.011-13.66,8.762-25.093,6.567-6.815-1.307-25.151-8.94-36.07,0S471.881,294.9,469.7,275.763s16.6-21.5,31.365-40.875c18.829-24.706-1.851-41.058-18.819-39.3s-25.158,18.246-40.185,7.293c-9.449-6.887-10.507-16.459-10-32.447s-1.179-51.613-9.41-75.463-12.812-46-8.273-48.736,32.859,5.433,56.89,33.015,34.891,37.325,37.638,42.447,9.8-1.08,28.229-6.288,34-3.551,42.344,0,19.656-2.652,26.66-15.722,29.635-71.827,46.048-84.9,16.073-20.395,31.366-4.717,31.859,47.881,33.934,73.891,2.405,31.935,6.273,40.876,5.99,39.571,4.705,56.6,7.558,40.02-3.137,67.6-29.736,51.923-15.115,80.179,25.482,21.154,40.776,56.6,41.694,43.945,62.14,73.324-0.955,63.388-26.661,71.88-30.609,9.358-49.594,13.582S693.421,560.98,676,573C645.09,594.327,623,593,615,566Z"/>
  <path id="_3" data-name="3" class="cls-1" d="M1026,566s-12.16-31.24,15.23-43.41,14.82,24.5,9.41,45.591c-5.64,22.01-23.99,27.338-39.21,26.727-11.506-.463-32.024-4.572-34.43-21.908s19.589-45.427,26.59-31.545S981.8,565.08,973.8,543.027s27.494-39.934,37.634-39.3-17.081,20.7-28.225-1.572,24.585-34.095,39.2-36.16,42.96,2.738,53.32-3.144,50.97-25.1,81.94,5.851,19.82,20.8-20.67,40.3-50.22,4.766-68.72-18.421c-20.04-25.108-65.71-25.627-98-14.993-23.162,7.628-10.652-19.208-43.527-17.454s-78.472,29.464-73.709,48.736,25.93,17.561,40.775,28.3,39.372,53.945,56.458,53.453S976.218,558,965.523,544.032,946.6,522.709,942.43,533.594c-5.221,13.623,17.433,20.356,23.525,6.289,3.022-6.981,12.123-21.61-11.078-43.024-8.2-7.573,5.363-18.51,12.646-10.429,9.161,10.166,8.459,27.856-7.842,20.438-15.693-7.142-23.08-22.312-42.991-24.875-33.629-4.33-56.988,12.79-54.241-11.284s32.306-40.159,33.933-59.742,7.439-43.752,15.115-48.736,8.937,67.439,82.686,64.458c37.317-1.508,94.757-39.367,87.647-59.174s14.15-30.438,14.15-30.438-2.07-39.261-31.36-7.861-124.4,44.512-159.965,17.294S840.073,265.026,843.493,239.6s12.711-28.031,9.409-37.731,2.854-47.347-1.568-72.319-22.67-66.212-14.546-70.746,59.519,47.881,64.731,69.174-19.774,21.379-18.819,37.731-7.69,19.9-12.547,14.149,6.649-18.731,28.229-20.437,8.89-22.551,59.6-29.871,96.933,53.362,123.893,44.02,3.29-19.181,0-12.577,12.7,25.063,21.96,22.01,1.67-12.752,6.27-22.01-11.09-15.447-6.27-31.443,13.79-48.686,4.27-70.746-21.17-63.734-45.48-17.293-28.93,66.08-15.82,80.179,36.52,59.941,14.68,67.752-39.32-14.922-72.138-3.294C965.757,198.881,973.084,239.416,997,239c111.82-1.948,29.22,82.7-8,84-11.085.389-9.641-11.965-33-15-15.4-2-24.063,3.138-39,13-9.775,6.453-29.317-5.764-40-19-18.257-26.1-19.537-42.892,2-52,18.765-5.294,28.348-11.519,33.5-22.973,0,0-2.067-20.293-14.322-19.77-11.067.916-13.2,12.829-6.614,19.01,7.665,4.367,11.565-.625,12.439-8.267,1.129-9.87-6.193-14.162-15.678-9.466-5.221,2.584-10.333,11.405-8.648,15.562,1.844,4.546,4.208,6.76,10.269,9.54,13.248,6.078,31.681-20.716,50.783-30.191s29.294,28.341,59.594,22.01c9.92-2.963,19.88-16.8,18.82-25.154-5.77-5.209-25.867-12.076-34.366,1-10.515,16.177,13.4,25.315,18.226,11.7,5.01-14.148-8.34-23.314-18.363-15.272C975.958,200.83,968.055,214.487,959,231c-5.651,10.3-25.261,18.043-34,15-9.9-3.448-18.829,2.037-12.5,10.9,4.883,6.832,5.758,1.165,9.4,9.433s6.273,7.86,6.273,7.86,6.078,4.433,9.273-8.861c3.868-5.657,17.778-8.165,17.388-16.293s-7.539.165-15.546,2.144S926.6,267.489,932,288c3.419,12.983-12.7,11.943-14,23-0.75,7.822,2.106,10.284,9,14,12.381,4.449,28.619,7.853,45.091-6.789,13.528-12.026,18.657-32.475,9.41-27.294-8.941,5.011-13.66,8.762-25.093,6.567-6.815-1.307-25.151-8.94-36.07,0S884.881,294.9,882.7,275.763s16.6-21.5,31.365-40.875c18.829-24.706-1.851-41.058-18.819-39.3s-25.158,18.246-40.185,7.293c-9.449-6.887-10.507-16.459-10-32.447s-1.179-51.613-9.41-75.463-14.812-46-10.273-48.736,34.859,5.433,58.89,33.015,34.891,37.325,37.638,42.447,9.8-1.08,28.229-6.288,34-3.551,42.344,0,19.661-2.652,26.661-15.722,26.63-71.827,43.05-84.9,15.07-20.395,30.36-4.717,35.86,47.881,37.94,73.891,2.4,31.935,6.27,40.876,5.99,39.571,4.7,56.6,7.56,40.02-3.13,67.6-28.74,51.923-14.12,80.179,22.49,21.154,37.78,56.6,41.69,43.945,62.14,73.324-0.96,63.388-26.66,71.88-30.61,9.358-49.6,13.582S1104.42,560.98,1087,573C1056.09,594.327,1034,593,1026,566Z"/>
  <path id="_4" data-name="4" class="cls-1" d="M1437,566s-12.16-31.24,15.23-43.41,14.82,24.5,9.41,45.591c-5.64,22.009-23.99,27.338-39.21,26.727-11.51-.463-32.02-4.572-34.43-21.908s19.59-45.427,26.59-31.545-21.79,23.625-29.79,1.572,27.49-39.934,37.63-39.3-17.08,20.7-28.22-1.572,24.58-34.095,39.2-36.16,42.96,2.738,53.32-3.144,50.97-25.1,81.94,5.851,19.82,20.8-20.67,40.3-50.22,4.766-68.72-18.421c-20.04-25.108-65.71-25.627-98.01-14.993-23.16,7.628-10.65-19.208-43.52-17.454s-78.47,29.464-73.71,48.736,25.93,17.561,40.77,28.3,39.38,53.945,56.46,53.453,25.95-30.619,15.25-44.587-18.92-21.323-23.09-10.438c-5.22,13.623,17.43,20.356,23.52,6.289,3.03-6.981,12.13-21.61-11.07-43.024-8.21-7.573,5.36-18.51,12.64-10.429,9.16,10.166,8.46,27.856-7.84,20.438-15.69-7.142-23.08-22.312-42.99-24.875-33.63-4.33-56.99,12.79-54.24-11.284s34.31-40.159,35.93-59.742,9.44-43.752,17.12-48.736,4.93,67.439,78.68,64.458c37.32-1.508,96.76-39.367,89.65-59.174s17.15-30.438,17.15-30.438-2.07-39.261-31.36-7.861-124.4,44.512-159.96,17.294-64.59-81.484-61.17-106.906,12.71-28.031,9.41-37.732,2.86-47.346-1.57-72.318-25.67-66.212-17.54-70.746,62.52,47.881,67.73,69.174-19.78,21.379-18.82,37.731-7.69,19.9-12.55,14.149,6.65-18.731,28.23-20.437,8.89-22.551,59.6-29.871,96.93,53.362,123.89,44.02,3.29-19.181,0-12.577,12.7,25.063,21.96,22.01,1.67-12.752,6.27-22.01-11.09-15.447-6.27-31.443,8.79-48.686-.73-70.746-21.17-63.734-45.48-17.293-24.93,66.08-11.82,80.179,37.52,59.941,15.68,67.752-39.32-14.922-72.14-3.294c-23.58,12.73-16.26,53.265,7.66,52.849,111.82-1.948,29.22,82.7-8,84-11.09.388-9.64-11.965-33-15-15.4-2-24.06,3.138-39,13-9.77,6.453-29.32-5.764-40-19-18.26-26.1-19.54-42.892,2-52,18.76-5.294,28.35-11.519,33.5-22.973,0,0-2.07-20.293-14.32-19.77-11.07.916-13.21,12.829-6.62,19.01,7.67,4.367,11.57-.625,12.44-8.267,1.13-9.87-6.19-14.162-15.68-9.466-5.22,2.584-10.33,11.405-8.65,15.562,1.85,4.546,4.21,6.76,10.27,9.54,13.25,6.078,31.68-20.716,50.79-30.191s29.29,28.341,59.59,22.01c9.92-2.963,19.88-16.8,18.82-25.154-5.77-5.209-25.87-12.076-34.37,1-10.51,16.177,13.41,25.315,18.23,11.7,5.01-14.148-8.34-23.314-18.36-15.272-8.68,3.1-16.58,16.759-25.64,33.272-5.65,10.3-25.26,18.042-34,15-9.9-3.448-18.83,2.037-12.5,10.9,4.89,6.832,5.76,1.165,9.41,9.432s6.27,7.861,6.27,7.861,6.08,4.433,9.27-8.861c3.87-5.657,17.78-8.165,17.39-16.293s-7.54.165-15.55,2.144S1342.6,267.489,1348,288c3.42,12.983-12.7,11.943-14,23-0.75,7.822,2.11,10.283,9,14,12.38,4.449,28.62,7.853,45.09-6.789,13.53-12.026,18.66-32.475,9.41-27.294-8.94,5.011-13.66,8.762-25.09,6.567-6.82-1.307-25.15-8.94-36.07,0s-35.46-2.588-37.64-21.721,16.6-21.5,31.37-40.876c18.82-24.705-1.86-41.057-18.82-39.3s-25.16,18.246-40.19,7.293c-9.45-6.887-10.51-16.459-10-32.447s-4.18-51.613-12.41-75.463-15.81-46-11.27-48.736,33.86,5.433,57.89,33.015,39.89,37.325,42.64,42.447,9.8-1.08,28.23-6.288,33.99-3.551,42.34,0,19.66-2.652,26.66-15.722,20.63-69.826,37.05-82.9,15.07-23.395,30.36-7.717,39.86,48.881,41.94,74.891,4.4,31.935,8.27,40.876,5.99,39.571,4.7,56.6,7.56,40.02-3.13,67.6-28.74,51.923-14.12,80.179,17.49,21.154,32.78,56.6,41.69,43.945,62.14,73.324-0.96,63.388-26.66,71.88-30.61,9.358-49.6,13.582S1515.42,560.98,1498,573C1467.09,594.327,1445,593,1437,566Z"/>
  <path id="_5" data-name="5" class="cls-1" d="M1848,566s-12.16-31.24,15.23-43.41,14.82,24.5,9.41,45.591c-5.64,22.009-23.99,27.338-39.21,26.727-11.51-.463-32.02-4.572-34.43-21.908s19.59-45.427,26.59-31.545-21.79,23.625-29.79,1.572,27.49-39.934,37.63-39.3-17.08,20.7-28.22-1.572,24.58-34.095,39.2-36.16,42.96,2.738,53.32-3.144,50.97-25.1,81.94,5.851,19.82,20.8-20.67,40.3-50.22,4.766-68.72-18.421c-20.04-25.108-65.71-25.627-98.01-14.993-23.16,7.628-10.65-19.208-43.52-17.454s-78.47,29.464-73.71,48.736,25.93,17.561,40.77,28.3,39.38,53.945,56.46,53.453,25.95-30.619,15.25-44.587-18.92-21.323-23.09-10.438c-5.22,13.623,17.43,20.356,23.52,6.289,3.03-6.981,12.13-21.61-11.07-43.024-8.21-7.573,5.36-18.51,12.64-10.429,9.16,10.166,8.46,27.856-7.84,20.438-15.69-7.142-23.08-22.312-42.99-24.875-33.63-4.33-56.99,12.79-54.24-11.284s36.31-40.159,37.93-59.742,11.44-43.752,19.12-48.736,0.93,67.439,74.68,64.458c37.32-1.508,98.76-39.367,91.65-59.174s23.15-30.438,23.15-30.438-2.07-39.261-31.36-7.861-124.4,44.512-159.96,17.294-64.59-81.484-61.17-106.906,12.71-28.031,9.41-37.732,0.86-47.346-3.57-72.318-26.67-66.212-18.54-70.746,65.52,47.881,70.73,69.174-19.78,21.379-18.82,37.731-7.69,19.9-12.55,14.149,6.65-18.731,28.23-20.437,8.89-22.551,59.6-29.871,96.93,53.362,123.89,44.02,3.29-19.181,0-12.577,12.7,25.063,21.96,22.01,1.67-12.752,6.27-22.01-11.09-15.447-6.27-31.443,4.79-48.686-4.73-70.746-23.51-64.067-45.48-17.293c-22.29,47.442-20.93,66.08-7.82,80.179s37.52,59.941,15.68,67.752-39.32-14.922-72.14-3.294c-23.58,12.73-16.26,53.265,7.66,52.849,111.82-1.948,29.22,82.7-8,84-11.09.388-9.64-11.965-33-15-15.4-2-24.06,3.138-39,13-9.77,6.453-29.32-5.764-40-19-18.26-26.1-19.54-42.892,2-52,18.76-5.294,28.35-11.519,33.5-22.973,0,0-2.07-20.293-14.32-19.77-11.07.916-13.21,12.829-6.62,19.01,7.67,4.367,11.57-.625,12.44-8.267,1.13-9.87-6.19-14.162-15.68-9.466-5.22,2.584-10.33,11.405-8.65,15.562,1.85,4.546,4.21,6.76,10.27,9.54,13.25,6.078,31.68-20.716,50.79-30.191s29.29,28.341,59.59,22.01c9.92-2.963,19.88-16.8,18.82-25.154-5.77-5.209-25.87-12.076-34.37,1-10.51,16.177,13.4,25.315,18.23,11.7,5.01-14.148-8.34-23.314-18.36-15.272-8.68,3.1-16.58,16.759-25.64,33.272-5.65,10.3-25.26,18.042-34,15-9.9-3.448-18.83,2.037-12.5,10.9,4.89,6.832,5.76,1.165,9.41,9.432s6.27,7.861,6.27,7.861,6.08,4.433,9.27-8.861c3.87-5.657,17.78-8.165,17.39-16.293s-7.54.165-15.55,2.144S1761.6,267.489,1767,288c3.42,12.983-12.7,11.943-14,23-0.75,7.822,2.11,10.283,9,14,12.38,4.449,28.62,7.853,45.09-6.789,13.53-12.026,18.66-32.475,9.41-27.294-8.94,5.011-13.66,8.762-25.09,6.567-6.82-1.307-25.15-8.94-36.07,0s-35.46-2.588-37.64-21.721,16.6-21.5,31.37-40.876c18.82-24.705-1.86-41.057-18.82-39.3s-25.16,18.246-40.19,7.293c-9.45-6.887-10.51-16.459-10-32.447s-7.18-51.613-15.41-75.463-18.81-47-14.27-49.736,36.86,6.433,60.89,34.015,42.89,37.325,45.64,42.447,9.8-1.08,28.23-6.288,33.99-3.551,42.34,0,19.66-2.652,26.66-15.722,15.63-69.826,32.05-82.9,14.07-23.395,29.36-7.717,42.86,48.881,44.94,74.891,7.4,31.935,11.27,40.876,5.99,39.571,4.7,56.6,7.56,40.02-3.13,67.6-28.74,51.923-14.12,80.179,9.49,21.154,24.78,56.6,41.69,43.945,62.14,73.324-0.96,63.388-26.66,71.88-30.61,9.358-49.6,13.582S1926.42,560.98,1909,573C1878.09,594.327,1856,593,1848,566Z"/>
  <path id="_4_kopia" data-name="4 kopia" class="cls-1" d="M2259,566s-12.16-31.24,15.23-43.41,14.82,24.5,9.41,45.591c-5.64,22.009-23.99,27.338-39.21,26.727-11.51-.463-32.02-4.572-34.43-21.908s19.59-45.427,26.59-31.545-21.79,23.625-29.79,1.572,27.49-39.934,37.63-39.3-17.08,20.7-28.22-1.572,24.58-34.095,39.2-36.16,42.96,2.738,53.32-3.144,50.97-25.1,81.94,5.851,19.82,20.8-20.67,40.3-50.22,4.766-68.72-18.421c-20.04-25.108-65.71-25.627-98.01-14.993-23.16,7.628-10.65-19.208-43.52-17.454s-78.47,29.464-73.71,48.736,25.93,17.561,40.77,28.3,39.38,53.945,56.46,53.453,25.95-30.619,15.25-44.587-18.92-21.323-23.09-10.438c-5.22,13.623,17.43,20.356,23.52,6.289,3.03-6.981,12.13-21.61-11.07-43.024-8.21-7.573,5.36-18.51,12.64-10.429,9.16,10.166,8.46,27.856-7.84,20.438-15.69-7.142-23.08-22.312-42.99-24.875-33.63-4.33-56.99,12.79-54.24-11.284s34.31-40.159,35.93-59.742,9.44-43.752,17.12-48.736,4.93,67.439,78.68,64.458c37.32-1.508,96.76-39.367,89.65-59.174s17.15-30.438,17.15-30.438-2.07-39.261-31.36-7.861-124.4,44.512-159.96,17.294-64.59-81.484-61.17-106.906,12.71-28.031,9.41-37.732,2.86-47.346-1.57-72.318-25.67-66.212-17.54-70.746,62.52,47.881,67.73,69.174-19.78,21.379-18.82,37.731-7.69,19.9-12.55,14.149,6.65-18.731,28.23-20.437,8.89-22.551,59.6-29.871,96.93,53.362,123.89,44.02,3.29-19.181,0-12.577,12.7,25.063,21.96,22.01,1.67-12.752,6.27-22.01-11.09-15.447-6.27-31.443,8.79-48.686-.73-70.746-21.17-63.734-45.48-17.293-24.93,66.08-11.82,80.179,37.52,59.941,15.68,67.752-39.32-14.922-72.14-3.294c-23.58,12.73-16.26,53.265,7.66,52.849,111.82-1.948,29.22,82.7-8,84-11.09.388-9.64-11.965-33-15-15.4-2-24.06,3.138-39,13-9.77,6.453-29.32-5.764-40-19-18.26-26.1-19.54-42.892,2-52,18.76-5.294,28.35-11.519,33.5-22.973,0,0-2.07-20.293-14.32-19.77-11.07.916-13.21,12.829-6.62,19.01,7.67,4.367,11.57-.625,12.44-8.267,1.13-9.87-6.19-14.162-15.68-9.466-5.22,2.584-10.33,11.405-8.65,15.562,1.85,4.546,4.21,6.76,10.27,9.54,13.25,6.078,31.68-20.716,50.79-30.191s29.29,28.341,59.59,22.01c9.92-2.963,19.88-16.8,18.82-25.154-5.77-5.209-25.87-12.076-34.37,1-10.51,16.177,13.41,25.315,18.23,11.7,5.01-14.148-8.34-23.314-18.36-15.272-8.68,3.1-16.58,16.759-25.64,33.272-5.65,10.3-25.26,18.042-34,15-9.9-3.448-18.83,2.037-12.5,10.9,4.89,6.832,5.76,1.165,9.41,9.432s6.27,7.861,6.27,7.861,6.08,4.433,9.27-8.861c3.87-5.657,17.78-8.165,17.39-16.293s-7.54.165-15.55,2.144S2164.6,267.489,2170,288c3.42,12.983-12.7,11.943-14,23-0.75,7.822,2.11,10.283,9,14,12.38,4.449,28.62,7.853,45.09-6.789,13.53-12.026,18.66-32.475,9.41-27.294-8.94,5.011-13.66,8.762-25.09,6.567-6.82-1.307-25.15-8.94-36.07,0s-35.46-2.588-37.64-21.721,16.6-21.5,31.37-40.876c18.82-24.705-1.86-41.057-18.82-39.3s-25.16,18.246-40.19,7.293c-9.45-6.887-10.51-16.459-10-32.447s-4.18-51.613-12.41-75.463-15.81-46-11.27-48.736,33.86,5.433,57.89,33.015,39.89,37.325,42.64,42.447,9.8-1.08,28.23-6.288,33.99-3.551,42.34,0,19.66-2.652,26.66-15.722,20.63-69.826,37.05-82.9,15.07-23.395,30.36-7.717,39.86,48.881,41.94,74.891,4.4,31.935,8.27,40.876,5.99,39.571,4.7,56.6,7.56,40.02-3.13,67.6-28.74,51.923-14.12,80.179,17.49,21.154,32.78,56.6,41.69,43.945,62.14,73.324-0.96,63.388-26.66,71.88-30.61,9.358-49.6,13.582S2337.42,560.98,2320,573C2289.09,594.327,2267,593,2259,566Z"/>
  <path id="_3_kopia" data-name="3 kopia" class="cls-1" d="M2670,566s-12.16-31.24,15.23-43.41,14.82,24.5,9.41,45.591c-5.64,22.01-23.99,27.338-39.21,26.727-11.51-.463-32.02-4.572-34.43-21.908s19.59-45.427,26.59-31.545-21.79,23.625-29.79,1.572,27.49-39.934,37.63-39.3-17.08,20.7-28.22-1.572,24.58-34.095,39.2-36.16,42.96,2.738,53.32-3.144,50.97-25.1,81.94,5.851,19.82,20.8-20.67,40.3-50.22,4.766-68.72-18.421c-20.04-25.108-65.71-25.627-98.01-14.993-23.16,7.628-10.65-19.208-43.52-17.454s-78.47,29.464-73.71,48.736,25.93,17.561,40.77,28.3,39.38,53.945,56.46,53.453,25.95-30.619,15.25-44.587-18.92-21.323-23.09-10.438c-5.22,13.623,17.43,20.356,23.52,6.289,3.03-6.981,12.13-21.61-11.07-43.024-8.21-7.573,5.36-18.51,12.64-10.429,9.16,10.166,8.46,27.856-7.84,20.438-15.69-7.142-23.08-22.312-42.99-24.875-33.63-4.33-56.99,12.79-54.24-11.284s32.31-40.159,33.93-59.742,7.44-43.752,15.12-48.736,8.93,67.439,82.68,64.458c37.32-1.508,94.76-39.367,87.65-59.174s14.15-30.438,14.15-30.438-2.07-39.261-31.36-7.861-124.4,44.512-159.96,17.294-64.59-81.484-61.17-106.906,12.71-28.031,9.41-37.731,2.86-47.347-1.57-72.319-22.67-66.212-14.54-70.746,59.52,47.881,64.73,69.174-19.78,21.379-18.82,37.731-7.69,19.9-12.55,14.149,6.65-18.731,28.23-20.437,8.89-22.551,59.6-29.871,96.93,53.362,123.89,44.02,3.29-19.181,0-12.577,12.7,25.063,21.96,22.01,1.67-12.752,6.27-22.01-11.09-15.447-6.27-31.443,13.79-48.686,4.27-70.746-21.17-63.734-45.48-17.293-28.93,66.08-15.82,80.179,36.52,59.941,14.68,67.752-39.32-14.922-72.14-3.294c-23.58,12.73-16.26,53.265,7.66,52.849,111.82-1.948,29.22,82.7-8,84-11.09.389-9.64-11.965-33-15-15.4-2-24.06,3.138-39,13-9.77,6.453-29.32-5.764-40-19-18.26-26.1-19.54-42.892,2-52,18.76-5.294,28.35-11.519,33.5-22.973,0,0-2.07-20.293-14.32-19.77-11.07.916-13.21,12.829-6.62,19.01,7.67,4.367,11.57-.625,12.44-8.267,1.13-9.87-6.19-14.162-15.68-9.466-5.22,2.584-10.33,11.405-8.65,15.562,1.85,4.546,4.21,6.76,10.27,9.54,13.25,6.078,31.68-20.716,50.79-30.191s29.29,28.341,59.59,22.01c9.92-2.963,19.88-16.8,18.82-25.154-5.77-5.209-25.87-12.076-34.37,1-10.51,16.177,13.4,25.315,18.23,11.7,5.01-14.148-8.34-23.314-18.36-15.272-8.68,3.1-16.58,16.759-25.64,33.272-5.65,10.3-25.26,18.043-34,15-9.9-3.448-18.83,2.037-12.5,10.9,4.89,6.832,5.76,1.165,9.41,9.433s6.27,7.86,6.27,7.86,6.08,4.433,9.27-8.861c3.87-5.657,17.78-8.165,17.39-16.293s-7.54.165-15.55,2.144S2570.6,267.489,2576,288c3.42,12.983-12.7,11.943-14,23-0.75,7.822,2.11,10.284,9,14,12.38,4.449,28.62,7.853,45.09-6.789,13.53-12.026,18.66-32.475,9.41-27.294-8.94,5.011-13.66,8.762-25.09,6.567-6.82-1.307-25.15-8.94-36.07,0s-35.46-2.588-37.64-21.721,16.6-21.5,31.37-40.875c18.82-24.706-1.86-41.058-18.82-39.3s-25.16,18.246-40.19,7.293c-9.45-6.887-10.51-16.459-10-32.447s-1.18-51.613-9.41-75.463-14.81-46-10.27-48.736,34.86,5.433,58.89,33.015,34.89,37.325,37.64,42.447,9.8-1.08,28.23-6.288,33.99-3.551,42.34,0,19.66-2.652,26.66-15.722,26.63-71.827,43.05-84.9,15.07-20.395,30.36-4.717,35.86,47.881,37.94,73.891,2.4,31.935,6.27,40.876,5.99,39.571,4.7,56.6,7.56,40.02-3.13,67.6-28.74,51.923-14.12,80.179,22.49,21.154,37.78,56.6,41.69,43.945,62.14,73.324-0.96,63.388-26.66,71.88-30.61,9.358-49.6,13.582S2748.42,560.98,2731,573C2700.09,594.327,2678,593,2670,566Z"/>
  <path id="_2_kopia" data-name="2 kopia" class="cls-1" d="M3081,566s-12.16-31.24,15.23-43.41,14.82,24.5,9.41,45.591c-5.64,22.01-23.99,27.338-39.21,26.727-11.51-.463-32.02-4.572-34.43-21.908s19.59-45.427,26.59-31.545-21.79,23.625-29.79,1.572,27.49-39.934,37.63-39.3-17.08,20.7-28.22-1.572,24.58-34.095,39.2-36.16,42.96,2.738,53.32-3.144,50.97-25.1,81.94,5.851,19.82,20.8-20.67,40.3-50.22,4.766-68.72-18.421c-20.04-25.108-65.71-25.627-98.01-14.993-23.16,7.628-10.65-19.208-43.52-17.454s-78.47,29.464-73.71,48.736,25.93,17.561,40.77,28.3,39.38,53.945,56.46,53.453,25.95-30.619,15.25-44.587-18.92-21.323-23.09-10.438c-5.22,13.623,17.43,20.356,23.52,6.289,3.03-6.981,12.13-21.61-11.07-43.024-8.21-7.573,5.36-18.51,12.64-10.429,9.16,10.166,8.46,27.856-7.84,20.438-15.69-7.142-23.08-22.312-42.99-24.875-33.63-4.33-56.99,12.79-54.24-11.284s31.31-40.159,32.93-59.742,7.44-43.752,15.12-48.736,9.93,67.439,83.68,64.458c37.32-1.508,93.76-39.367,86.65-59.174s13.15-30.438,13.15-30.438-2.07-39.261-31.36-7.861-124.4,44.512-159.96,17.294-64.59-81.484-61.17-106.906,12.71-28.031,9.41-37.731,2.86-47.347-1.57-72.319-21.67-66.212-13.54-70.746,58.52,47.881,63.73,69.174-19.78,21.379-18.82,37.731-7.69,19.9-12.55,14.149,6.65-18.731,28.23-20.437,8.89-22.551,59.6-29.871,96.93,53.362,123.89,44.02,3.29-19.181,0-12.577,12.7,25.063,21.96,22.01,1.67-12.752,6.27-22.01-11.09-15.447-6.27-31.443,16.12-45.353,5.27-70.746c-9.44-22.093-20.17-63.734-44.48-17.293s-31.93,66.08-18.82,80.179,37.52,59.941,15.68,67.752-39.32-14.922-72.14-3.294c-23.58,12.73-16.26,53.265,7.66,52.849,111.82-1.948,29.22,82.7-8,84-11.09.389-9.64-11.965-33-15-15.4-2-24.06,3.138-39,13-9.77,6.453-29.32-5.764-40-19-18.26-26.1-19.54-42.892,2-52,18.76-5.294,28.35-11.519,33.5-22.973,0,0-2.07-20.293-14.32-19.77-11.07.916-13.21,12.829-6.62,19.01,7.67,4.367,11.57-.625,12.44-8.267,1.13-9.87-6.19-14.162-15.68-9.466-5.22,2.584-10.33,11.405-8.65,15.562,1.85,4.546,4.21,6.76,10.27,9.54,13.25,6.078,31.68-20.716,50.79-30.191s29.29,28.341,59.59,22.01c9.92-2.963,19.88-16.8,18.82-25.154-5.77-5.209-25.87-12.076-34.37,1-10.51,16.177,13.4,25.315,18.23,11.7,5.01-14.148-8.34-23.314-18.36-15.272-8.68,3.1-16.58,16.759-25.64,33.272-5.65,10.3-25.26,18.043-34,15-9.9-3.448-18.83,2.037-12.5,10.9,4.89,6.832,5.76,1.165,9.41,9.433s6.27,7.86,6.27,7.86,6.08,4.433,9.27-8.861c3.87-5.657,17.78-8.165,17.39-16.293s-7.54.165-15.55,2.144S2979.6,267.489,2985,288c3.42,12.983-12.7,11.943-14,23-0.75,7.822,2.11,10.284,9,14,12.38,4.449,28.62,7.853,45.09-6.789,13.53-12.026,18.66-32.475,9.41-27.294-8.94,5.011-13.66,8.762-25.09,6.567-6.82-1.307-25.15-8.94-36.07,0s-35.46-2.588-37.64-21.721,16.6-21.5,31.37-40.875c18.82-24.706-1.86-41.058-18.82-39.3s-25.16,18.246-40.19,7.293c-9.45-6.887-10.51-16.459-10-32.447s-1.18-51.613-9.41-75.463-12.81-46-8.27-48.736,32.86,5.433,56.89,33.015,34.89,37.325,37.64,42.447,9.8-1.08,28.23-6.288,33.99-3.551,42.34,0,19.66-2.652,26.66-15.722,29.63-71.827,46.05-84.9,16.07-20.395,31.36-4.717,31.86,47.881,33.94,73.891,2.4,31.935,6.27,40.876,5.99,39.571,4.7,56.6,7.56,40.02-3.13,67.6-29.74,51.923-15.12,80.179,25.49,21.154,40.78,56.6,41.69,43.945,62.14,73.324-0.96,63.388-26.66,71.88-30.61,9.358-49.6,13.582S3159.42,560.98,3142,573C3111.09,594.327,3089,593,3081,566Z"/>
  <path id="_1_kopia" data-name="1 kopia" class="cls-1" d="M3492,566s-12.16-31.24,15.23-43.41,14.82,24.5,9.41,45.591c-5.64,22.01-23.99,27.338-39.21,26.727-11.51-.463-32.02-4.572-34.43-21.908s19.59-45.427,26.59-31.545-21.79,23.625-29.79,1.572,27.49-39.934,37.63-39.3-17.08,20.7-28.22-1.572,24.58-34.095,39.2-36.16,42.96,2.738,53.32-3.144,50.97-25.1,81.94,5.851,19.82,20.8-20.67,40.3-50.22,4.766-68.72-18.421c-20.04-25.108-65.71-25.627-98.01-14.993-23.16,7.628-10.65-19.208-43.52-17.454s-78.47,29.464-73.71,48.736,25.93,17.561,40.77,28.3,39.38,53.945,56.46,53.453,25.95-30.619,15.25-44.587-18.92-21.323-23.09-10.438c-5.22,13.623,17.43,20.356,23.52,6.289,3.03-6.981,12.13-21.61-11.07-43.024-8.21-7.573,5.36-18.51,12.64-10.429,9.16,10.166,8.46,27.856-7.84,20.438-15.69-7.142-23.08-22.312-42.99-24.875-33.63-4.33-56.99,12.79-54.24-11.284s31.31-40.159,32.93-59.742,6.44-43.752,14.12-48.736,10.93,67.439,84.68,64.458c37.32-1.508,93.76-39.367,86.65-59.174s12.15-30.438,12.15-30.438-2.07-39.261-31.36-7.861-124.4,44.512-159.96,17.294-64.59-81.484-61.17-106.906,12.71-28.031,9.41-37.731,2.86-47.347-1.57-72.319-20.67-66.212-12.54-70.746,57.52,47.881,62.73,69.174-19.78,21.379-18.82,37.731-7.69,19.9-12.55,14.149,6.65-18.731,28.23-20.437,8.89-22.551,59.6-29.871,96.93,53.362,123.89,44.02,3.29-19.181,0-12.577,12.7,25.063,21.96,22.01,1.67-12.752,6.27-22.01-11.09-15.447-6.27-31.443,15.79-48.686,6.27-70.746-21.17-63.734-45.48-17.293-31.93,66.08-18.82,80.179,37.52,59.941,15.68,67.752-39.32-14.922-72.14-3.294c-23.58,12.73-16.26,53.265,7.66,52.849,111.82-1.948,29.22,82.7-8,84-11.09.389-9.64-11.965-33-15-15.4-2-24.06,3.138-39,13-9.77,6.453-29.32-5.764-40-19-18.26-26.1-19.54-42.892,2-52,18.76-5.294,28.35-11.519,33.5-22.973,0,0-2.07-20.293-14.32-19.77-11.07.916-13.21,12.829-6.62,19.01,7.67,4.367,11.57-.625,12.44-8.267,1.13-9.87-6.19-14.162-15.68-9.466-5.22,2.584-10.33,11.405-8.65,15.562,1.85,4.546,4.21,6.76,10.27,9.54,13.25,6.078,31.68-20.716,50.79-30.191s29.29,28.341,59.59,22.01c9.92-2.963,19.88-16.8,18.82-25.154-5.77-5.209-25.87-12.076-34.37,1-10.51,16.177,13.4,25.315,18.23,11.7,5.01-14.148-8.34-23.314-18.36-15.272-8.68,3.1-16.58,16.759-25.64,33.272-5.65,10.3-25.26,18.043-34,15-9.9-3.448-18.83,2.037-12.5,10.9,4.89,6.832,5.76,1.165,9.41,9.433s6.27,7.86,6.27,7.86,6.08,4.433,9.27-8.861c3.87-5.657,17.78-8.165,17.39-16.293s-7.54.165-15.55,2.144S3389.6,267.489,3395,288c3.42,12.983-12.7,11.943-14,23-0.75,7.822,2.11,10.284,9,14,12.38,4.449,28.62,7.853,45.09-6.789,13.53-12.026,18.66-32.475,9.41-27.294-8.94,5.011-13.66,8.762-25.09,6.567-6.82-1.307-25.15-8.94-36.07,0s-35.46-2.588-37.64-21.721,16.6-21.5,31.37-40.875c18.82-24.706-1.86-41.058-18.82-39.3s-25.16,18.246-40.19,7.293c-9.45-6.887-10.51-16.459-10-32.447s-1.18-51.613-9.41-75.463-10.81-46-6.27-48.736,30.86,5.433,54.89,33.015,34.89,37.325,37.64,42.447,9.8-1.08,28.23-6.288,33.99-3.551,42.34,0,19.66-2.652,26.66-15.722,30.63-71.827,47.05-84.9,16.07-20.395,31.36-4.717,30.86,47.881,32.94,73.891,2.4,31.935,6.27,40.876,5.99,39.571,4.7,56.6,7.56,40.02-3.13,67.6-28.74,51.923-14.12,80.179,25.49,21.154,40.78,56.6,41.69,43.945,62.14,73.324-0.96,63.388-26.66,71.88-30.61,9.358-49.6,13.582S3570.42,560.98,3553,573C3522.09,594.327,3500,593,3492,566Z"/>
</svg>
