<svg xmlns="http://www.w3.org/2000/svg" width="588.939" height="527.843" viewBox="0 0 588.939 527.843">
  <defs>
    <style>
      .cls-1 {
        fill: none;
        stroke: #0c3c3a;
        stroke-linecap: round;
        stroke-linejoin: round;
        stroke-width: 1.5px;
        fill-rule: evenodd;
      }
    </style>
  </defs>
  <path id="aco_kopia" data-name="aco kopia" class="cls-1" d="M1046,369c-11.84-39.649-44.41-23.852-55-17s0.34,27.4,11,24,1.59-23.852-3-22c-10.84,3.851-3.66,16.9,1,16s2.59-10.6-4-12-31.66-.6-44,17-55.16,13.649-66,2c-18.84-24.4-33.41-21.1-40-19s-8.66,11.9-2,14,11.59-26.351,2-21c-20.34,15.351-11.41,28.149-5,29s22.34-13.6,15-31c-8.34-19.9-52.66-2.351-64,15s-27.41,13.4-47,8-37.41-16.6-54-15c-13.868,1.338-20.66-4.852-24-4s5.59,11.148,16,12,31.59,8.649,46,23,49.59,21.649,56,22,2.84-14.6,4-26,4.09-16.851-2-20-24.66-20.851-30-41-11.41-24.852-19-38-5.16-18.851-3-14,26.09,24.4,32,35,18.09,27.9,35,29,24.09-8.6,24-17-2.66-25.352,7-50-12.41-67.851-13-70,16.59,7.4,26,30,4.34,50.9,5,63c0.66,25.1,5,21,5,21s29.294-12.516,67-13c28.422-.365,59.34,8.4,69,12,5.575,2.078,8.24.308,10.73-5.34,1.83-4.136,3.56-10.353,6.27-18.66,6.41-19.649,12.59-28.851,28-48s13.84-49.6,20-33-16.66,49.149-20,84-12.91,18.9-7,37,47.09,4.648,68-21,47.34-37.1,56-40,16.34,0.4,4,4-36.66,29.4-46,50-21.66,30.149-43,43c-9.62,5.791-13.52,3.218-14.61,2.154-5.49-5.353.56,3.745,8.81,5.5,5.24,1.111,11.71,3.313,20.8,3.351,35.34,0.149,55.91-8.649,79-2s25.41,13.851,17,12-39.09-7.4-68,12-67.09,26.1-63,15c2.25-6.1,12.02-6.763,3,10-10.79,20.067-12.96,18.432-34,32-16.28,10.5-9.14,22.382-1,31s23.86,47.882,64,45,31.61-49.118,58-88,90.36-41.618,100-41,28.61,1.882-2,10-53.64,35.882-52,56,14.36,47.632-21,79-98.66,19.9-100,22,28.09,28.649,35,41,21.84,30.649,29,38,29.59,20.649,34,26,4.59,13.9,2,11-27.41-14.852-31-16,4.09,8.9,7,12,10.59,23.9,8,24-7.91-9.351-14-14-21.66-15.6-25-15-1.91,8.149,0,17,6.84,21.4,1,18-18.66-41.1-21-42-8.16,20.148-10,20-3.66-9.1-3-25-8.91-32.851-20-43-8.16,3.9-19,2-12.41-22.1-11-36-14.66-22.6-29-32-23.91,1.149-34-1-16.66-4.1-29-2-12.66-1.1-25,7-39.16,35.4-40,41-9.91,18.648-13,22-6.91,30.148-7,35,2.84,12.4,4,17,2.59,13.9-1,13-7.16-10.6-12-12-7.41,4.9-18,25c-12.09,22.851-12.91,31.149-16,23s7.34-33.351,8-40-3.66-.851-8,3-12.66,14.149-18,18-19.16,18.4-19,13,25.34-41.352,22-41c-12.84,3.1-31.66,21.4-34,20s2.59-13.851,14-23,12.84-17.1,24-25,27.84-29.6,35-44,46.59-58.6,52-63,5.59-9.351,4-19,3.84-15.352,44-17,65.59-39.1,67-33,2.34,13.148,7,19,23.59,23.148,37,35,18.84,29.4,19,36-2.66,36.9-3,44,9.34,17.649,14,21,13.84,18.649,16,24a17.69,17.69,0,0,1,1,10s0.09,0.148-3-3-20.91-22.6-23-23-0.16,5.4,4,14,5.84,19.649,5,20-2.66-1.851-8-8-17.91-18.351-20-19-4.66,3.4-8,9-3.91,10.148-6,8-4.91-17.351-8-24-6.91-5.1-11-4-13.91,1.9-17,1,3.34-5.851,9-9,9.34-6.851,11-15,5.34-9.1,9-20,4.84-29.852,3-32c-6.84-2.4-17.91-16.852-27-29s-24.41-11.1-25-15,11.34-6.851,17,5-21.16,22.4-37,22-35.41,3.149-43,0-12.66-2.6-29-8-24.41-24.352-31-24-25.91,14.9-38,22-13.41,14.149-14,22,2.09,18.4,2,27,6.84,18.9,10,22,11,11,11,11-0.41-.352,0,2-5.91-.1-12-3-11.41-4.351-15-4-7.91,17.649-11,25-9.41,16.9-11,17-0.66-9.352,0-19-3.41-15.851-6-16-10.16,10.148-15,17-21.16,23.4-24,21,8.84-14.352,12-21,8.84-18.6,7-17-22.66,14.4-26,19-7.91,9.4-9,6c-2.09-6.649,22.09-27.6,25-32s6.84-8.351,17-19c10.208-10.7,10.59-50.1,13-64s24.59-28.6,37-33,26.59-11.351,30-14,5.59-3.351,8-10c7.66-18.9-23.41-33.351-20-44s34.59-12.1,48-12,35.59,8.649,61,7,33.34-10.352,53-5c28.16,7.6,39.58,7.946,46-3,7.22-12.316,7.38-27.455-6-23-35.59,11.851-24.91-1.6-47-3s-28.41,19.148-42,12,9.84-39.351,19-64-41.16-23.851-61-10,2.84,33.148,14,51,13.09,35.149-4,23-31.91-16.6-46-8-24.16-2.852-39-5-24.16,13.649-23,35,24.34,31.148,30,32,9.09-.1,18,8c24.41,27.6,67.09,24.149,96,24s73.02-29.886,83-40C1031.52,428.337,1052.88,392.034,1046,369Z" transform="translate(-665.531 -196.969)"/>
</svg>
