<svg xmlns="http://www.w3.org/2000/svg" width="719.91" height="539.093" viewBox="0 0 719.91 539.093">
  <defs>
    <style>
      .cls-1 {
        fill: none;
        stroke: #fff;
        stroke-linecap: round;
        stroke-linejoin: round;
        stroke-width: 1.5px;
        fill-rule: evenodd;
      }
    </style>
  </defs>
  <path id="kot_kopia" data-name="kot kopia" class="cls-1" d="M939.3,416.518c-2.84-16.181-.784-13.69,5.338-14.213s13.447-.365,14.232-5.329c3.008-1.189,9,2.743,12.453-9.772,1.229-6.518-6.566-13.024-3.558-15.989s0.994-15.023,2.668-16.878-3.9-14.579-6.226-19.543-0.34-7.472,0-11.548-1.127-19.506,0-26.649-1.349-33.719-6.227-33.755-14.246,19.356-22.237,39.085-12.912,25.8-11.564,31.091-2.016,7.364-4.448,7.994-1.793,6.7-6.226,6.219-10.6,3.656,8,17.766,22,23.8,27.575,14.212,9.548-11.956,4.448-13.324-21.807-9.957-23.128-13.325-4.239-5.738.89-10.659-0.9-8.181,1.779-16.878,23.335-53.262,24.906-52.41,2.21,54.667,0,58.628-2.238,7.809,1.779,11.548,5.99,22.022,1.779,21.319S928.39,341.715,921.51,352.56c-1.987,4.184-32.4-5.448-43.585,8.883-6.741,8.336-23.28,14.761-20.459,23.1s8.436,17.136,11.564,21.32,8.436,14.471,24.906,14.212,25.559,6.921,29.354,6.219,9.562-2.887-8.006-18.655c0,0-4.734-3.25-9.785-10.659s-16.074-8.137-17.79-6.219-0.508,10.519,2.669,14.213,3.494,5.411,6.226-7.106c0.509-1.635,1.938-11.245-11.563-6.218s-14.232,3.553-14.232,3.553,8.609,17.625,19.569,17.766,9.276-2.806,13.342-6.218c3.01-2.525,6.768-13.069,14.765-19.4,2.808-2.224,1.85-12.5-8.538-25.014s-15.408-18.574-28.464-13.325-14.3,5.633-18.68-.888-4.956-7.47-11.563-10.66S826.047,315.554,821,309.922s-22.3-13.466-28.464-14.213-7.625-4.583-9.785,3.553-8.514,39.61,2.669,65.735c10.96,23.015,13.945,28.284,17.79,28.425s4.383,10.074,8,16.878c0.645,1.212,7.2,3.534,13.51,5.847,4.148,1.522,5.944,3.42,6.949,5.7,1.586,3.6-4.734,1.857,1.779,10.66s14.835,18.513,19.569,34.644,6.607,40.942,11.563,48.856,16.392,36.5,21.348,38.2,6.163,40.721,34.691,51.522,27.511,12.739,41.807,16.878S984.6,632.193,982,619.94c-3.791-17.847-9.4-21.017-9.785-31.091s22.174,10.518,15.122,44.415-8.959,32.282-14.232,40.862-11.4,9.63-13.343,15.99S944.8,706.63,934.853,709.658s-16.964,8.742-21.348,8-6.513-2.362-12.453-.888A18.124,18.124,0,0,1,886.82,714.1c-3.272-2.08-8.07,1.191-10.674,2.665s-12.517,3.634-14.232,9.771-1.843,10.074,1.779,10.66,6.607-2.14,9.784-1.777,9.276-4.583,5.337-10.66-11.182-13.243-18.679-4.441-4.734,14.96-1.779,13.324,10.165-1.917,13.342-.888,7.5-.585,13.343,1.777,11.055-1.7,13.342-1.777-4.668-7.285-8-6.218c-15.725,5.027,5.273,9.408,16.9,8s12.167-.586,16.012,0,18.838,1.635,25.8-.889,23.063,4.3,25.8-.888,17.281-18.573,22.237-20.431,4.6-12.133,10.672-13.324,2.38-7.026,5.34-8,14.17-7.692,24.91-18.654,28.17-30.566,27.57-44.416c-0.59-13.61-20.48-57.441-6.97-93.172,0.24-.628.48-1.253,0.74-1.876,14.97-36.057,17.95-20.128,14.24,8.883s6.16,95.351,56.92,132.357,97.56,35.391,141.43,15.99c35.12-15.528,59.46-55.7,51.94-62.019-1.88-1.576-5.74-1.045-11.91,2.5-30.91,17.766-114.08,31.091-146.77-56.851s45.15-106.6,24.91-109.261-80.05-11.548-122.75,75.5c-9.05,23.592-6.29,73.234,9.78,109.262s76.88,89,119.2,95.048,64.68,3.762,65.19,6.922-9.66,8.572-10.04,12.621-0.96,8.61-20.46,4.441c-16.62-2.613-34.31-.717-45.37,1.777s-14.52-2.05-31.13-2.665-53.21-7.6-58.71-6.218-11.4-8.268-17.79-2.665,0.38,7.055,7.12,7.106,9.72-4.048-1.78-9.771c-7.27-3.28-13.85,8.166-22.24,8.883s-15.41-3.6-16.01-6.218-13.41-8.49-1.78-17.766,23.96,2.17,14.23,8.883-9.62,4.835-19.56,3.553c-4.17.717-8.52,1.059-9.79-5.33s1.94-12.931,9.79-15.1,8.38-5.381,12.45-8,4.6-2.271,16.9.889,13.06,6.167,32.02,7.106,56.19,0.412,70.27-.888-24.31-16.466-6.22-12.436,83.8,32.331,128.08,21.319c34.74-8.638,45.83-18.2,54.26-32.867,2-3.479,15.2-20.106,33.8-15.1s36.4-4.323,82.73-57.74,46.62-109.586,1.78-180.326-164.79-121.5-221.49-114.591c-57.3,6.987-76.57-5.655-63.15-47.968,11.09-34.978,35.5-41.631,39.13-44.415s21.28-10.541,6.23-14.213c-34.17-6.338-96.39,81.875-57.82,116.367,46.85,41.883,82.83-27.558,216.15,55.964,53.13,33.279,76.06,74.78,79.17,125.25s-25.43,80.067-51.59,106.6-49.37-23.277-49.82-31.091c-0.59-10.4-3.63-38.229-17.79-60.4s-32.31-67.543-122.75-102.154c-51.07-22.62-133.98,3.409-158.33,8.883s-26.36.522-32.91,2.665-23.91-8.139-29.353-8.883-19.909.744-16.011,6.218,4.775,24.951,4.447,37.308,5.887,63.37,16.9,77.283,30.31-5.127,42.7,28.425c16.13,43.671-8.79,27.616-24.91,75.506-6.64,19.748-37.028,31.613-42.692,44.415s-27.915,10.738-48.034,11.548,13.226-5.695,38.249-34.643,25.234-50.333,32.907-68.4-14.567-16.133-25.791-61.293-15.016-23.461-14.232-10.659,0.55,28.726-16.9,16.877-39.256-14.578-39.139-36.42-29.915-34.788-21.348-47.08,2.774-3.919-13.342-15.99-28.582-33.233-23.127-36.42,14.337,21.842,34.69,23.984,11,9.406,32.912,10.66,37.242,1.411,44.475-8,15.672-13.024,16.9-22.208-3.231-15.689.889-23.984,2.774-22.573-2.668-30.2-9.68-10.359-13.343-10.66-9.012,7.851-10.674,8.883,6.332,7.851,9.785,9.772,0.994-9.471-.89-12.437-10.791,1.411-9.784,6.219,5.219,19.4,10.674,24.872c2.8,2.814.63-.207,5.337,5.33s-2.04,9.4-2.669,12.436c-1.27,6.138-5.4,20.512-8.895,21.319s-15.63,16.293-23.127,14.213-8.736-1.474-13.343-1.776-7.624-15.021-9.784-17.766-16.965.08-27.575-7.107S853.622,420.374,854.8,410.3s-1.843-11.911-7.116-2.665a57.412,57.412,0,0,1-8.258,11.636c-0.452.456-4.941-3.383-5.085-5.418-0.6-8.519,7.72-23.237,10.674-24.872s-9.4-7.914-13.342-6.218-0.954,8.075-4.448,8.883-7.624,7.631-10.674,2.665-3.177-6.36-8.895-8-9.181-5.915-8.895-11.548-9.4-1.252-12.453-25.761,0.381-46.333,3.558-47.08,14.613-1.7,32.912,17.766,6.162,35.391,10.674,41.75,4.383,14.516.889,14.213-2.287-15.464,7.116-17.766,10.166,11.629,21.348,15.99,26.177-5.027,40.917,7.106,30.18,30.727,27.575,41.75c-1.715,7.914,10.61,7.1,16.9,9.772,4.98,2.116,8.164,9.63,10.674,10.659s-0.509,8.076,6.226,9.772c2.955,0.807,6.608-3.917,12.453-5.33s6.385-11.023,5.337-18.655-3.177-8.8-7.116-8.883c-1.99-.04-7.6-0.468-10.674-2.664-2.336-1.668-4.342,5.63-12.453,4.441-2.269-.333-4.166,1.04-5.684,2.686C946.557,424.97,941.872,431.163,939.3,416.518Z" transform="translate(-778.25 -232.469)"/>
</svg>
