<svg xmlns="http://www.w3.org/2000/svg" width="427.781" height="360.72" viewBox="0 0 427.781 360.72">
  <defs>
    <style>
      .cls-1 {
        fill: none;
        stroke: #0c3c3a;
        stroke-linecap: round;
        stroke-linejoin: round;
        stroke-width: 1.5px;
        fill-rule: evenodd;
      }
    </style>
  </defs>
  <path id="Kształt_3" data-name="Kształt 3" class="cls-1" d="M1039.71,3048.47c-6.27-22.49,51.1-38.11,91.01-45.5,43.8-8.11,114.67,1.05,147.49,20.4s18.96,42.23,18.82,47.85c-0.07,3.05-8.76,67.47-13.33,76.1s-32.82,28.51-112.19,34.52-98.72-9.94-112.18-17.26-17.66-5.49-31.39-2.35c-51.643,21.7-72.825,56.22-66.68,93.36,8.238,51.77,93.23,84.2,129.45,92.57,56.87,13.07,29.02-5.75,65.11-5.49s25.89,12.03,19.61,11.76-9.67-9.93,15.69-11.76,90.22-6.02,139.65-36.09,46.29-73.75,41.58-87.08-6.4-16.24-9.55,5.49c-4.71,32.43-49.81,32.95-76.75,33.73s-50.99,23.54-50.99,23.54-9.11,6.49-25.11,18.83c-42.22,32.56-35.56,20.39-61.19,27.46s-28.77,13.07-25.89,16.47c7.85,13.08,37.4,1.31,31.38,7.85s-21.7,9.15-31.38,2.35-13.34-15.43,15.69-31.38,99.37-58.58,120.03-71.39,7.85-17.26,6.28-23.54c0.78-23.53,25.37-29.81,43.93-30.59,39.49-.53,45.94,18.82,40.94,31.02-13.08,26.15-56.1,18.92-63.69,19.97s-108,86.82-118.46,95.71-12.03,14.91,29.81,14.12c94.14-1.57,175.99-52.82,187.5-102.77s-41.84-91.27-56.48-99.63-34.78-17.26-36.09-12.56-18.83,46.55-40.8,70.61-54.13,41.06-83.94,40.8-47.33-10.47-77.67-38.45c-34.52-35.04-50.47-93.88-53.35-112.97s-1.3-20.39-14.9-28.24-22.491,6.01-19.61,19.61,18.18,23.4,25.1,20.4c7.85-3.4,8.37,6.8,10.98,18.83s4.71,16.21-19.61,14.12-57.793-40.01-47.856-78.45,48.116-30.08,57.266-28.24,0.12,9.74,7.85,26.67c9.34,20.44,34.62,27.52,87.87,29.81,68.38,3.27,134.93-12.03,156.12-27.46s-1.31-38.44-45.51-50.21-97.28-15.43-147.49,3.14c-18.23,6.75-32.96,15.25-36.23,23.71-2.17,5.61-7.11,26.89,27.6,32.78,74.08,12.55,151.42-3.14,149.06-12.56-5.75-23.79-66.42,1.31-64.33-5.49s25.63-19.09-9.41-19.61-31.64,22.23-32.17,36.87c-0.4,11.24,1.57,12.29,12.55,11.77,8.93-.42,28.9,1.57,64.34-3.14,34.81-4.62,58.05-18.04,39.22-35.3s-58.84,1.57-58.84,1.57c-2.87-4.97,28.9-22.23,8.63-28.24-42.75-12.03-63.74,1.17-70.6,23.53-3.98,12.94-28.5,18.17-48.8,15.77C1065.62,3065.55,1044.42,3065.34,1039.71,3048.47Z" transform="translate(-959.469 -2999.25)"/>
</svg>
