<svg xmlns="http://www.w3.org/2000/svg" width="409.624" height="595.25" viewBox="0 0 409.624 595.25">
  <defs>
    <style>
      .cls-1 {
        fill: none;
        stroke: #0c3c3a;
        stroke-linecap: round;
        stroke-linejoin: round;
        stroke-width: 1.5px;
        fill-rule: evenodd;
      }
    </style>
  </defs>
  <path id="Kształt_5" data-name="Kształt 5" class="cls-1" d="M1162,5006s-12.16-31.24,15.23-43.41,14.82,24.5,9.41,45.59c-5.64,22.01-23.99,27.34-39.21,26.73-11.51-.46-32.02-4.57-34.43-21.91s19.59-45.43,26.59-31.54-21.79,23.62-29.79,1.57,27.49-39.94,37.63-39.31-17.08,20.71-28.22-1.57,24.58-34.09,39.2-36.16,42.96,2.74,53.32-3.14,50.97-25.1,81.94,5.85,19.82,20.8-20.67,40.3-50.22,4.77-68.72-18.42c-20.04-25.11-65.71-25.63-98.01-14.99-23.16,7.62-10.65-19.21-43.52-17.46s-78.474,29.47-73.711,48.74,25.931,17.56,40.771,28.3,39.38,53.94,56.46,53.45,25.95-30.62,15.25-44.59-18.92-21.32-23.09-10.44c-5.22,13.63,17.43,20.36,23.52,6.29,3.03-6.98,12.13-21.61-11.07-43.02-8.21-7.57,5.36-18.51,12.64-10.43,9.16,10.17,8.46,27.86-7.84,20.44-15.69-7.14-23.08-22.31-42.99-24.88-33.63-4.33-56.988,12.79-54.241-11.28s31.311-40.16,32.931-59.74,6.44-43.76,14.12-48.74,10.93,67.44,84.68,64.46c37.32-1.51,93.76-39.37,86.65-59.18s12.15-30.43,12.15-30.43-2.07-39.26-31.36-7.86-124.4,44.51-159.96,17.29-64.586-81.48-61.167-106.91,12.711-28.03,9.409-37.73,2.854-47.34-1.568-72.32-20.67-66.21-12.546-70.74,57.522,47.88,62.732,69.17-19.78,21.38-18.82,37.73-7.69,19.9-12.55,14.15,6.65-18.73,28.23-20.44,8.89-22.55,59.6-29.87,96.93,53.37,123.89,44.02,3.29-19.18,0-12.57,12.7,25.06,21.96,22.01,1.67-12.75,6.27-22.01-11.09-15.45-6.27-31.45,15.79-48.68,6.27-70.74-21.17-63.74-45.48-17.3-31.93,66.08-18.82,80.18,37.52,59.94,15.68,67.75-39.32-14.92-72.14-3.29c-23.58,12.73-16.26,53.27,7.66,52.85,111.82-1.95,29.22,82.69-8,84-11.09.39-9.64-11.97-33-15-15.4-2-24.06,3.14-39,13-9.77,6.45-29.32-5.76-40-19-18.257-26.1-19.537-42.89,2-52,18.76-5.29,28.35-11.52,33.5-22.97,0,0-2.07-20.3-14.32-19.77-11.07.91-13.21,12.83-6.62,19.01,7.67,4.36,11.57-.63,12.44-8.27,1.13-9.87-6.19-14.16-15.68-9.47-5.22,2.59-10.33,11.41-8.65,15.57,1.85,4.54,4.21,6.76,10.27,9.54,13.25,6.07,31.68-20.72,50.79-30.2s29.29,28.35,59.59,22.01c9.92-2.96,19.88-16.8,18.82-25.15-5.77-5.21-25.87-12.08-34.37,1-10.51,16.18,13.41,25.32,18.23,11.7,5.01-14.15-8.34-23.31-18.36-15.27-8.68,3.1-16.58,16.76-25.64,33.27-5.65,10.3-25.26,18.04-34,15-9.9-3.45-18.83,2.04-12.5,10.9,4.89,6.83,5.76,1.16,9.41,9.43s6.27,7.86,6.27,7.86,6.08,4.43,9.27-8.86c3.87-5.66,17.78-8.16,17.39-16.29s-7.54.16-15.55,2.14-12.69,16.31-7.29,36.82c3.42,12.98-12.7,11.94-14,23-0.75,7.82,2.11,10.28,9,14,12.38,4.45,28.62,7.85,45.09-6.79,13.53-12.02,18.66-32.47,9.41-27.29-8.94,5.01-13.66,8.76-25.09,6.56-6.82-1.3-25.15-8.94-36.07,0s-35.46-2.58-37.64-21.72,16.6-21.5,31.37-40.87c18.82-24.71-1.86-41.06-18.82-39.31s-25.16,18.25-40.189,7.3c-9.449-6.89-10.507-16.46-10-32.45s-1.179-51.61-9.41-75.46-10.812-46-6.273-48.74,30.859,5.43,54.892,33.02,34.89,37.32,37.64,42.44,9.8-1.08,28.23-6.29,33.99-3.55,42.34,0,19.66-2.65,26.66-15.72,30.63-71.82,47.05-84.89,16.07-20.4,31.36-4.72,30.86,47.88,32.94,73.89,2.4,31.94,6.27,40.88,5.99,39.57,4.7,56.59,7.56,40.02-3.13,67.61-28.74,51.92-14.12,80.18,25.49,21.15,40.78,56.59,41.69,43.95,62.14,73.33-0.96,63.39-26.66,71.88-30.61,9.35-49.6,13.58-43.45,16.38-60.87,28.4C1192.09,5034.33,1170,5033,1162,5006Z" transform="translate(-959.406 -4440.44)"/>
</svg>
