<svg xmlns="http://www.w3.org/2000/svg" width="360.656" height="349.125" viewBox="0 0 360.656 349.125">
  <defs>
    <style>
      .cls-1 {
        fill: #fff;
        stroke: #00ffea;
        stroke-linecap: round;
        stroke-linejoin: round;
        stroke-width: 1.5px;
        fill-rule: evenodd;
      }
    </style>
  </defs>
  <path id="Kształt_6" data-name="Kształt 6" class="cls-1" d="M670.032,326.338c5.176-2.189,58.88-28.962,95.534-36.427s71.4-12.569,85.2-25.368,1.56,1.22-10.973,14.961-46.6,36.346-72.3,39.028-52.738-1.743-86.5,14.311c-1.172.557-15.218,6.954-7.746,7.155,16.209,0.435,23.411-5.7,78.75,4.553,31.1,5.761,19.462,3.779,37.439,5.855,13.265,1.531,16.664.093,43.894-1.3s38.611-3.593,42.6,6.5,0.742,17.873-3.227,16.262-3.562-7.5,1.291-7.155,6.885,2.168,7.1,4.553c0,0-2.678,8.066-11.619,6.5s-4.228-18.343,7.1-15.611c6.552,0.78,11.393,11.448,23.238,12.358s14.1-1.04,12.91,2.6-9.651,1.692-5.81,0,9.328-5.724,20.011-1.3,14.491-2.471,16.137-5.2,7.649-3.773,7.746-1.952-2.55,2.212-4.519-1.951-7.842-12.1-25.819-13.01-12.491,23.938-30.339,24.718-26.3,1.3-38.729,9.107c-10.1,5.724-30.306,2.732-41.312,19.514s-3.324,18.083-13.555,18.213-23.981-.911-23.884-7.805c0.1-4.684,3.518,1.951,10.974-1.3s7.778-6.635,1.936-7.806-17.138-5.334-16.137-9.757c0.484-2.6,3.776,1.431,9.682-1.3s5.067-5.464,0-10.408-12.877-18.213-9.037-24.717c2.55-3.773,2.485-.911,5.164,2.6s9.715,11.058,18.074,7.806,13.846-8.586,18.719-14.961S835.182,339.217,857.872,340s28.175-1.691,33.565-3.252,13.2-1.171,26.466,4.553,12.425,7.675,17.428,7.155,10.876-1.041,12.91,3.9-0.613,6.895-3.228,4.553-2.937-5.464-.645-5.2,4.551,2.863,4.518,7.156c0.355,2.081,2.356,3.252,5.81,5.2s8.94,11.579,0,14.311-14.943,6.374-31.63,5.2-32.371,8.587-38.729,11.058-10.941,8.457-20.011.651-18.816-41.63,16.783-46.834,12.039,9.887,35.5,12.359c17.525,1.821,16.04,3.513,17.428,9.107s8.036,9.106,16.137,5.854,10.361,5.594,7.1,11.058c-3,2.472-4.486,16.392-17.429,26.669s-28.24,24.588-40.666,29.922c-7.649,2.862-14.427,15.871-21.3,18.864s-6.681,5.724-5.164,7.155,5.454,6.895,3.227,11.708-2.42,19.905-2.582,27.32-8.617,10.928-9.682,14.311-13.394,11.578-12.264,13.66,4.034,1.3,8.391-.651,9.2-2.472,10.328,3.9-0.613,20.685,1.291,20.815,4.422-5.2,8.391-14.31,4.809-6.765,6.455,1.951,4.938,17.823,7.1,19.514,2.1-6.765,1.936-12.359-1.258-21.075,1.291-20.815,9.586,1.822,12.265,1.3,6.874-3.252,4.518-3.9-7.2-2.992-8.391-5.2-9.651-13.529-9.683-21.465,1.711-13.66.646-19.514,0.677-24.068-1.937-29.272,1.194-9.5-22.592,5.855c-3.9,3.512-19.849,7.285-27.756,8.456s-11.716,3.512-16.783,3.252c-2.873.26-11.587,5.334-18.074,5.854s-11.458,14.441-17.428,20.816-5.261,8.846-3.873,12.359,1.323,13.659.645,17.562,2.356,11.189,0,14.961,0.549,3.773,3.228,4.554,13.329,2.081,13.555,4.553,2.485,9.107,1.291,13.009-1.517,3.383,0,3.253,3.389,1.691,4.518,1.3-1-3.643-1.936-5.2-4.228,3.643-6.455,5.854a10.015,10.015,0,0,1-7.1,2.6c-1.453-.13,1.452-3.773,3.227-5.2s-0.1-8.586-1.936-9.106-7.456,1.821-8.392,5.2-4.1,19.645-7.1,21.466-2.034.26-1.937-2.6a124.806,124.806,0,0,0-.645-13.009c-0.291-1.561-.1-8.456-1.937-9.107s-9-2.992-14.2,0-11.457,1.952-13.555,1.3,4.292-2.732,6.455-3.9,8.036-7.675,7.746-11.058-4.616-26.409-3.228-35.125,2.615-12.36,2.582-13.66,4.938-14.181,10.328-20.165,17.074-21.856,17.429-31.223,3.13-20.165,11.618-7.155,8.682,33.3,1.937,35.776-28.757,20.165-33.566,30.572-8.359-5.724,0-18.213,5.2-12.879-2.582-11.709-62.322-.39-80.687-5.2-42.054-26.41-45.184-35.776-4.228,9.366-8.392,18.213-10.553,25.759-15.492,34.475-7.068,16.522-7.1,22.116-5.906,8.847-7.746,11.709-3.066,9.757-1.936,9.757,7.907-8.717,10.327-9.757,3.648,1.561,3.873,3.252,3.647,10.147,2.582,13.009-0.1,5.2,3.873-.65,1.453-11.448,1.937-14.31,3.518-.781,5.809,3.252,3.26,17.3,3.228,20.165,3.389-4.814,3.873-9.107,1.323-15.351-1.291-18.213,5.325,0.52,8.391,2.6,3.9,6.244,4.519,7.8,1.581-3.252,1.291-6.5-3.066-9.367-7.1-10.408-19.332-5.464-20.656,0,12.168,3.122,16.138-8.456,9.973-24.328,15.492-27.971,15.395-8.846,11.619-11.058-20.5-10.928-24.529-31.873-3.97-16.262-5.81-19.514-10.037-20.555-3.227-34.475c4.744-11.318,1.969-11.838.645-15.611s-1-17.563.646-22.116-2.292-11.839,3.227-20.165,32.695-27.19,58.74-33.825,32.436-5.464,54.222-13.66,75.426-17.3,91.015-20.815,16.3-6.244,20.01-13.009,8.94,11.969,1.936,27.32c-4.163,8.846-21.527,30.962-34.856,43.582s-35.857,25.368-60.677,21.465-47.928-3.159-68.422-.65S628.506,343.9,670.032,326.338Z" transform="translate(-599.656 -240.25)"/>
</svg>
