<svg xmlns="http://www.w3.org/2000/svg" width="948.996" height="435.594" viewBox="0 0 948.996 435.594">
  <defs>
    <style>
      .cls-1 {
        fill: #fff;
        stroke: #00ffea;
        stroke-linecap: round;
        stroke-linejoin: round;
        stroke-width: 1.5px;
        fill-rule: evenodd;
      }
    </style>
  </defs>
  <path id="KRESKY_BLACK_CAT" data-name="KRESKY BLACK CAT" class="cls-1" d="M1406.68,502.179s-3.47-2.383-7.6-8.736-9.6-8.618-15.15-8.678-1.26.01-1.26,0.01-7.44-1.723-11.34-4.938-16.13-13.383,1.17-11.317,17.07,0.808,22.6-1.432,6.56-4.346,12.61,4.928,3.33,11.385,5.17,18.807c1.83,6.583,12.63,22.621,16.56,30.026s5.06,17.236,2.66,18.826-9.87,9.4-10,6.361a10.43,10.43,0,0,0-2.56-6.263c-0.74-.726-0.99-6.171,1.21-6.292s0.76,3.867,5.06,4.987-5.06,8.938-6.19,11.356-6.73,9.789-15,10.169-10.76,3.328-13.78,5.133-11.78,7.315-17.56,3.906-13.39-11.1-17.73-17.453-18.65-15.457-27.77-16.118-45.59-6.034-50.3-5.891-29.34,10.592-33.82,14.084,12.27-24.912,29.88-35.414,33.35-7.485,32.5-21.613,4.48-30.5,14.86-29.014,27.76,2.4,26.35-3.974-4.82-14.1-.15-20.1,19.42-19.523,22.46-19.022-4.3,25.057-1.03,28.907,0.37,7.43-8.7,11.376-10.69-14.681-3.91-17.56,4.29,26.456-3.54,30.183,10.34,22.43,20.27,21.2,20.16-6.754,26.35-5.23,10.82,5.254,7.6,8.736-8.19,9.381-7.43,13.879,7.54,12.819-22.45,20.278-30.9-1.332-37.73-3.476-42.24-5.851-61.56.479-37.02,19.028-37.47,29.19,8.05,25.379,9.1,38.88,5.79,30.423,2.87,45.21,7.01,27.063,15.39,41.344,22.82,39.3,35.65,60.034,20.39,23.4,29.11,27.416,11.49,9.228,17.65,7.4,16.85-1.074,21.39,3.6,6.25,9.269,8.89,12.5-1.27,10.793-3.68,11.337-4.3-1.12-7.54.059-18.51,2.341-25.13-1.061-35.51-27.682-29.17-33.7,18.22,12.945,31.51,12.319,20.03,3.508,21.44,9.885,7.13,14.288-27.54,12.779-31.33-2.585-33.96-3.5-9.49,3.737-12.57-1.159-3.12-11.18-10.18-16.255-68.03-64.495-79.77-78.537-18.06-20.7-22.8-23.7-10.7-16.148-11.5-25.04-5.54-25.821-20.37-33.767-17.17-13.584-15.24-21.241,6.03-19.209-5.31-36.4-2.98-46.992,5.84-57.844,15.12-7.343,30.22,8.561,27.8,34.231,35.49,39.931-3.52,18.768-8.48,40.273,3.09,34.632,14.14,41.354,17.86-5.9,21.38,2.346,20.79,48.107,35.68,65.059,43.67,54.84,39.42,60.005-13.05,4.812-41.64-23.549-64.2-54.892-60.78-59.839,15.49-13.629,1.09-21.368-23.27-16.888-30.38-28.663-11.42-1.273-18.85-1.11-17.41,9.872-27.55,12.779c-6.36,2.878-37.15,56.724-50.89,79.554s-15.68,44.2-12.21,46.584,8.29,1.3,12.57-.1,9.32,0.66,15.11,4.909,3.93,6.983,6.35,8.746,3.76,11.592.1,12.564-10.56,1.861-12.55,1.354-19.34,4.442-22.61,1.432-40.24-17.593-27.79-18.631,15.38-2.32,16.35,1.129,8.63-7.5,3.65-15.106-14.22-10.675-16.35-2.385,12.03,25.976,20.28,23.715,6.91-13.772,14.99-11.425,17.6,19.334,11.45,17.5c-7.87-2.346-22.49,3.419-36.42,2.8s-22.3-.561-23.92-6.1-3.76-11.8-1.4-18.836,7.23-25.92,6.07-27.689-7.39,6.862-9.98,10.129-2.08,14.569.12,15.077,11.71-15.484,9.82-30.232,13.69-56.544,18.26-75.53,12.33-42.713,18.5-44.121,56.72,9.086,66.67,9.534-35.25,4.565-81.76-10.673-66.675-24.508-92.055-43.261c-20.3-12.091-29.122-15.166-34.04-14.813s-14.514,5.242-15.067,1.374-4.439-18.709,1.09-21.369,11.832,0.012,21.417,7.373,10.875,11.536,2.572,7.519-13.116-3.564-17.609-2.376-7.178,6.022-8.629,21.427-12.022,56.319-24.561,73.066-43.26,51.746-43.427,70.7c0.392,9.946,8.685,26.213,12.818,32.569s12.62,20.527,25.3,22.42,17.749,6.876,18.934,11.161,7.1,11.147,3.9,16.3-7.847.792-13.8,2.62-11.8,3.545-17.57,2.649-15.858-6.055-18.924-9.9-30.871-51.591-25.607-61.368,18.733,25.715,30.447,37.457c7.29,8.426,10.421,7.149,15.135,7.421,11.209,0.647,13.616,14.028,15.214,17.473,2.88,6.21-11.976,8.363-17.541,6.418s-18.946.67-25.128,0.2-12.7-4.4-16.45-14.95-11.175-23.264-16.587-32.539-19.859-35.761-25.451-41.266-6.073-13.461,1.061-25.138,12.663-27.847,14.716-46.6,0.807-44.3-6.693-52.719-40.311-53.821-44.511-68.76,3.6,45.1,7.968,55.222,1.656,10.98-6.135,18.895-31.323,24.848-39.97,30.466-14.929,5.665-18.788,7.685-8.3-3.811-17.384,26.521-19.091,62.866-19.565,69.258-2.724,13.318-1.139,15.087,1.018,9.728,3.867,12.535c2.217,2.392-3.174,9.342,2.649,17.57s8.537,7.157,8.873,9.983,4.956,4.462,11.318,1.168,12.373-11.092,12.417-18.944-9.351-31.026-6.624-43.925,12-32.658,9.787-34-16.4,32.271-16.02,40.332,4.3,27.922,5.289,33.884c1.976,11.912-3.558,13.743-6.155,16.382s10.318,2.866,16.3-3.9c9.238-10.437,1.438-17.08-.156-20.1s-6.2-29.375,4.625-51.551,18.373-20.562,31.214-25.372,61.554-15.244,70.251-14.368,5.061-35.955,17.189-51.649,18.085-57.625,3.115-84.208-55.331-19.36-65.587-32.158-34.078-60.152-50.5-31.019a533.154,533.154,0,0,0-44.429,103.376c-11.743,38.31-59.354,82.655-116.444,52.421s-11.271-62.423-9.3-65.264,9.239-10.23,2.356-20.122-25.315-10.38-38.85,12.867-23.442,68.972,20.844,95.33,95.145,22.608,133.12-8.574,47.988-63.094,54.646-82.1S729.3,496.66,742.01,502.321s-1.826-5.955-10.237-23.793-10.431-8.4-25.03,12.759-0.4-37.378,13.4-54.132,46.843-48.845,111.351-61.177,104.711-12.856,162.143,7.535,101.513,33.867,114.573,30.521,37.27-14.636,52.65-16.744,38.02,1.693,52.8,4.616,21.51,5.38,31.45,4.781,28.6,1.556,49.07,8.414-16.11,14.887-51.27,31.81-39.01,32.866-37.31,49.293,8.61,16.789,13.9,9.943,6.7,13.663,10.25,25.05,7.26,32.087-2.29,28.917-29.48-7.625-42.58,17.921-23.89,12.226-32.69-2.258-15.42-3.756-42.72.332-82.6-25.431-103.47-56.993-53.186-66.7-87.258-72.2-8.962,19.02,9.137,43.905,30.794,41.747,22.967,45.055-25.921-34.458-35.395-27.367-9.719,2.273-16.5-21.232-32.67-40.688-50.715-58.66-6.468-37.331,18.5-44.121,84.218-9.137,153.419,16.4,75.06,25.068,90.81,44.527,37.7,41.274,55.52,29.724,11.11-11.92-.18-22.615-28.24-36.534-5.36-42.679,37.54-6.889,62.83.768,65.06,5.042,85.53,10.643,30.08,4.9,36.45,2.23,16.73-16.989,26.29-12.769-0.15-5.34,1.46,26.374c2.05,7.629,7.92,9.256,15.19,14.96s18.68,18.6,16.55,27.514c-1.35.954-7.26-4.448-17.59,0.136s-36.68,9.394-46.46,4.131-13.51,26.176,10.34,36.357,10.78,26.2,36.55,14.794,29.41-1.591,28.81-11.532S1406.68,502.179,1406.68,502.179Z" transform="translate(-485.094 -366.594)"/>
</svg>
