<svg xmlns="http://www.w3.org/2000/svg" width="453" height="600.47" viewBox="0 0 453 600.47">
  <defs>
    <style>
      .cls-1 {
        fill: #fff;
        stroke: #0c3c3a;
        stroke-linecap: round;
        stroke-linejoin: round;
        stroke-width: 1.5px;
        fill-rule: evenodd;
      }
    </style>
  </defs>
  <path id="Kształt_6_kopia_3" data-name="Kształt 6 kopia 3" class="cls-1" d="M630.829,2728.5c22.224-9.44,25.6-16.76,32.169-19.32,9.714-3.8,31.326-55.63,46.323-65.7,15.158-10.19,10.534-20.19,1.287-52.82-1.648-5.81-7.374-58.4,1.286-60.54s23.187-5.59,32.169-23.19,4.851-26.52-1.286-30.91-12.2-6.56-14.155,3.86-3.835,4.39-7.72,7.73-11.556,20.5-15.441,20.61-9.3-6.88-9.008-10.3,5.494-6.24-1.286-9.02-12.2.85-12.868-2.58-10.912-7.2-11.581-15.46,6.781,5.68,18.015,5.16,12.571-4.31,19.3-2.58-6.408,43.36-11.581,46.37-23.779,11.16-30.882,14.17-29.248-3.01-28.309,2.58,10.642,5.04,14.155,9.02,31.551,7.29,38.6,1.29,12.25-23.95,15.442-23.19,26.725-6.24,32.169-27.05,12.249-7.85,15.441-21.9,3.564-20.08,9.007-24.48,11.928-13.32,10.294-18.03,10.319-15.58,10.294-23.19-4.8-31.35-21.875-28.34-31.5,26.29-34.742,33.49,0.669,6.33,10.294,6.44,29.621-9.13,33.455-21.89,1.634-18.48,5.147-19.33-2.548-12.67-6.433-16.74a299.244,299.244,0,0,0-27.022-23.19c-5.923-4.36-11.877-5.91-18.015-16.75s-24.423-10.09-37.316-23.18-9.625-21.05-15.441-21.9-25.066-17.19-7.72-16.75c5.764,0.76,7.1,1.82,11.58-2.57s7.1-5.59,12.868-5.16,22.865-19.76,48.9-36.07c17.989-13.41,70.154-59.37,90.073-56.68s15.145,19.53,9.007,32.21-10.269,16.31-11.581,23.19-4.8,13.08-7.72,18.03-8.339,24.04-14.155,29.63-1.261,16.31-5.147,27.05,6.138,20.82-2.573,29.63-18.954,33.7-25.735,32.2-19.276-10.74-19.3-16.74-3.191-12.68-9.007-14.17-10.59-3.66,7.721-15.46,22.222-17.19,24.448-12.88-1.261,11.8-10.294,16.74-24.745,10.84-32.169,3.87c-6.138-6.33-11.234-4.95-5.147-11.6s24.152-37.79,39.889-43.79,17.075-9.78,23.162-10.31-18.632,27.58-25.735,34.78-37.934,35.63-47.61,23.19,0.99-13.32,3.86-21.9,2.6-27.49,9.007-38.65,57.608-62.59,78.493-69.56,24.152,4.4,19.3,11.6-13.807,28.54-14.154,37.35-7.374,19.53-12.868,23.19-6.73,27.26-9.007,33.49,2.277,12.45-3.86,18.04-11.234,43.03-19.3,45.08-24.744,9.55-28.308,19.33-7.7,29.51-12.868,25.76-9.947-33.61-21.875-37.36-15.737-3.98-16.728-12.88-6.73-20.4-10.294-24.48-7.373-8.48-5.147-12.88-3.835-10.42-7.72-14.17-9.3-9.77-9.008-12.88-9.3-14.61-18.014-16.74-10.591-3.02-14.155,0-13.807-3.66-21.875,1.28c-2.92,2.7-14.128,4.4-18.014,3.87s-10.269-17.19-21.875-24.48c-8.711-6.32-22.171-21.37-32.169-33.49s-18.633-18.15-27.022-24.47-23.779-19.44-37.316-15.46-26.353,7.61-33.456,34.78-5.764,31.12-3.86,42.51,0.347,23.39,5.147,33.49,12.572,16.95,10.294,30.92,1.634,20.81,6.434,24.47,6.781,3.43,9.007,9.02,7.425,6.32,9.008,19.32,14.823,18.56,20.588,19.32,8.844,3.14,11.581,7.73c4.478,7.52,9.354,1.5,10.294,6.44s5.816,7.94,11.581,7.73,21.578-12.67,24.448-19.32,5.172,6.33,1.287,15.46-2.227,21.78,1.286,24.47,6.781,11.48,7.721,15.46,15.466,16.63,23.162,21.9,19.648,10.51,21.874,15.46,5.816,30.48,10.295,32.2,5.815-2.05,7.72-6.44,7.1-3.01,6.434-7.73,4.851-15.57,10.294-15.46,27.047-6.23,29.6-12.88-2.869-5.91-5.147-9.01,5.816-8.49-2.573-10.31-9.625-12.03-10.294-16.75-5.122-24.91-23.162-32.2-39.542-3.34-42.463,1.29,13.858,26.61,30.882,29.63,22.222,2.13,25.735,0,6.781-3.98,14.155-1.29,13.858,0.85,23.161-3.87,25.118-9.45,34.743-2.57,20.935,42.71,20.588,47.66-0.618,4.71-5.147,3.86-12.842,1.18-14.154-1.28-8.339-23.31-11.581-42.51-4.157-24.6-6.434-27.06-6.408-21.37-6.434-29.62-24.1-2.05-19.3-15.46-5.765-26.52-11.581-43.8-10.912-19.76-19.3-27.05-24.745-16.86-28.309-16.75-13.807,5.68-9.007,7.73,16.753,9.55,21.875,16.75,9.032,21.14,0,25.76-17.668,4.72-18.015,0-10.269-1.08-3.86-5.15,18.361-13.64,12.867-20.61-14.772-6.56-16.728-9.02-6.73-8.49-9.007-9.02-10.912.85-20.588-15.45-27.318-16.87-34.742-32.21-41.473-48.1-61.765-47.66-26.675,14.7-32.169,37.36-2.226,44,6.434,46.37,28.334,13.09,30.882,33.49S483.2,2321,488,2321.44s14.5,9.86,18.014,7.72,0.669-10.42,7.721-10.3,12.571,6,16.728-1.29-8.017-13.96-3.861-23.19-11.877-18.47-3.86-29.62,5.816,19.2-10.294,16.74-35.039,5.04-30.882,16.75,5.816,22.1,0,27.05,12.249,24.36,6.434,36.07,3.885,32.73,10.294,39.93,19.97,18.89,23.161,33.49,13.537,25.97,32.169,37.36,26.082,13.41,28.309,21.9,27.691,27.9,32.169,28.34,8.067,0.21,11.581,5.15,12.893,3.75,12.867,0-14.129-7.52-18.014-19.32-11.556-9.78-9.008-20.61,7.1-13.64,2.574-18.03-1.9-9.78,2.573-14.17,1.312-8.17-12.867-7.73-32.144-11.39-37.316-29.63,0.669-20.73-3.861-23.19-8.981-4.3,5.148-12.88,31.872-11.71,51.47-1.29,31.873,33.38,38.6,27.05-4.157-2.69-2.574-24.47-5.443-38.12-11.581-34.78-26.675,18.56-30.882,11.59-0.3-10.42,10.294-16.75,23.187-9.13,24.448-16.74-4.478-17.83-7.72-12.88-11.234,15.98-36.029,20.61-63.348,6.32-75.919,38.64-3.191,25.33-5.147,37.36a17.829,17.829,0,0,0,12.868,20.61c6.408,1.73,5.494,19.85,19.3,24.48s0.669,8.9,16.728,16.74,15.145,15.02,21.875,24.48,4.85,27.58-10.3,38.64c-8.236,6.02-16.86,11.18-18.384,16.21-3.46,11.42-8.847,12.02-14.47,21.71-3.314,5.71-9.256,16.61-12.457,25.95s-1.124,21.45-6.228,18.69-4.585-4.5-7.267-9.35c-1.881-3.39-1.679-10.15-1.038-15.57,0.779-6.57-8.548,3.55-11.44,4.51s-10.791-7.97-16.587-9.7-1.125-3.46,5.19-2.07,9.053-1.74,15.571-3.12c6.574-1.38,22.232-13.84,25.951-18.68s3.893-14.19,9.343-16.61,13.581-14.53,19.723-21.8,1.471-15.23-4.152-17.65,3.546-8.3-10.381-18.68-7.18,1.73-4.152,12.45,12.2,24.23,2.076,28.03-20.675,26.99-35.294,34.26-27.249,10.03-30.1,9.34-0.951-6.23,8.305-10.38,18.425-8.3,23.875-18.69,18.426-16.26,21.8-21.79-6.5-13.9-11.349-25.7-4.478-18.15-9.007-24.48-14.687-22.61-19.3-28.34c-6.567-8.15,6.459-17.5,7.72-1.29s0.991,60.75,5.147,66.99,1.315,3.87-5.147,25.76-49.619,32.83-52.71,30.3c-6.638-5.43-10.449-6.62-7.762-2.77s4.082,13.8.307,28.51,4.187,20.17,5.216,30.9c1.273,13.27,19.464,24.86,29.677,34.73s7.208,14.32-13.293,12.76-24.614,6.49-38.925,13.43c-14.575,7.07-24.575,4.39-21.143,1.84s3.019-3.08,21.187,2.23,54.836-3.47,63.341-13.67-29.815-16.06-50.6-12.52c-41.948,9.92-44.676,21.09-51.8,27.4s-6.931,11.48-1.129,8.57,15.821-4.78,32.555-.33,47.193,5.54,52.869,3.58,7.989,0.17,13.2,14.72c9.5,26.52-4.441,28-2.515,18.83s13.918-39.12,27.517-45.38c8.278-3.81-1.548-5.15-7.01-8.49-8.617-1.3-22.644,7.36-31.163,16.21s-4.191,39.14-1.574,42.78a31.768,31.768,0,0,1,5.881,17.05c0.353,7.6,4.888.36,9.732-3.36s25.39-13.12,32.348-24.86c12.158-20.52,8.682-32.44,11.756-36.68s0.333-6.93.333-6.93c20.095,23.73,39.915,11.22,58.607.22s22.539-5.61,22.359-2.26,0.749,2.25-11.832-2.73-53.362-5.66-60.663-2.24,6.4-2.09-1.041,16.71,48.463,11.34,58.65,4.29,17.816-8.8,24.749-7.17c8.823,2.08,11.867,29.14,4.081,26.54s2.293-19.21,10.039-23.84,10.677-11.08,3.947-19.25,0.853-27.25,5.061-29.62,11.877-9.23,9.007-23.19,1.583-29.83,12.868-48.95-4.208-11.48-9.008-11.59-10.963,12.67-16.728,24.47-8.067,25.56-9.007,37.36-11.785,12.34-18.014,21.9c-7.7,11.8,7.051-44.65,10.294-57.97s-19.3-44.68-20.675-48.95c-3.217-9.98-21.681,21.5-35.943,28.41-6.83,3.31-3.365,1.59-7.72,5.16-11.419,9.34,2.638,30.23,9.944,28.39s7.985-14.33,3.938-12.26-2.714,12.52-5.863,22.47-7.341,24.71-22.8,36.48c-18.859,14.36-16.427,19.25-18.425,15.33-4.007-7.87,1-3.24,1.084-14.85s17.7-42.85,23.736-49.02,11.355-16.41,14.466-17.25,4.076,0.64,10.151-2.14,11.751-4.74,9.355-.5-4.07,12.53-2.213,21.2-1.06,21.26-10.973,39.22-41.215,32.75-43.528,39.54c-2.367,6.95-5.43,5.96-8.891,5.79s-3.43-3.3-1.348-11.8c1.884-7.69-4.439-37.24-10.678-46.73-13.02-19.82-21.568-24.35-27.871-30.13s-18.289-7.14-19.306-16.5c-0.852-7.86,2.131-9.93,4.318-2.26s-6.892,19.99-5.4,27.38c5.158,25.47,18.682,27.85,30.937,38.38s16.368,14.57,18.133,21,11.4,13.33,14.352,10.04,8.173-3.27,21.012-14.06,21.158-12.98,31.626-10.91,29.9,11.03,37.264,21.21c3.479,4.81,15.487,15.25,14.935,20.01s-24.361,12.54-25.951,19.73,10.24,9.76,15.571,15.57S619.1,2733.48,630.829,2728.5Z" transform="translate(-388.5 -2159.56)"/>
</svg>
