<svg xmlns="http://www.w3.org/2000/svg" width="159.719" height="23.312" viewBox="0 0 159.719 23.312">
  <defs>
    <style>
      .cls-1 {
        fill: #0c3c3a;
        fill-rule: evenodd;
      }
    </style>
  </defs>
  <path id="logo_" data-name="logo " class="cls-1" d="M174.356,53.092h21.732V48.724H174.356v4.368Zm0,8.737h21.732V57.461H174.356v4.368Zm0,10.193h21.732V67.654H174.356v4.368ZM169.7,55.277c0-6.553-7.762-6.553-7.762-6.553h-13.97v4.368h13.97s3.105,0,3.105,2.185-3.105,2.184-3.105,2.184h-13.97v4.368h4.28l10.866,10.193H169.7L158.834,61.829h3.1S169.7,61.829,169.7,55.277Zm31.045,0c0,6.552,7.761,6.552,7.761,6.552h6.209s3.1,0,3.1,2.912-3.1,2.913-3.1,2.913h-13.97v4.368h13.97s7.761,0,7.761-7.281-7.761-7.28-7.761-7.28h-6.209s-3.1,0-3.1-2.184,3.1-2.184,3.1-2.184h13.97V48.724h-13.97S200.745,48.724,200.745,55.277Zm-74.81-6.553h-4.657V56h4.657V48.724Zm-4.657,23.3h4.657V64.741h-4.657v7.281Zm17-23.3L127.394,58.935V58.917l-1.553,1.456,1.553,1.456V61.812l10.884,10.21h6.586L132.446,60.373l12.418-11.649h-6.586Zm93.512,0h-4.657V56h4.657V48.724Zm-4.657,23.3h4.657V64.741h-4.657v7.281Zm16.7-23.3L232.947,58.935V58.917l-1.553,1.456,1.553,1.456V61.812l10.884,10.21h6.586L238,60.373l12.418-11.649h-6.586Zm20.432,23.3h4.657V63.285h-4.657v8.737Zm10.148-23.3-6.7,6.287L271,58.1l10-9.376h-6.586Zm-15.639,0h-6.586l10,9.376,3.293-3.089Z" transform="translate(-121.281 -48.719)"/>
</svg>
