<svg xmlns="http://www.w3.org/2000/svg" width="373.12" height="117.719" viewBox="0 0 373.12 117.719">
  <defs>
    <style>
      .cls-1 {
        fill: #00ffea;
        stroke: #fff;
        stroke-linecap: round;
        stroke-linejoin: round;
        stroke-width: 1.5px;
        fill-rule: evenodd;
      }
    </style>
  </defs>
  <path id="ONE_LINEAR_kopia_4" data-name="ONE LINEAR kopia 4" class="cls-1" d="M1741,652c-5.38,5.75,3.87,24,7,22,23.62-14.75,20.12-24,15-25s-10,4-10,4,5.58-19.928-33,4c-64.5,40-80.5,21-84-19s28.5-81,60-70-53.5,116-89,112-1.5-72-16-106-96.5,80-89,103,24.5-61,16-92-42.5-8-64-4-46.5-19,1-16,21.02,141.644-41,111c-42.5-21,0-86,0-86" transform="translate(-1394.38 -563.969)"/>
</svg>
