<svg xmlns="http://www.w3.org/2000/svg" width="384.348" height="625.812" viewBox="0 0 384.348 625.812">
  <defs>
    <style>
      .cls-1 {
        fill: none;
        stroke: #00ffea;
        stroke-linecap: round;
        stroke-linejoin: round;
        stroke-width: 1.5px;
        fill-rule: evenodd;
      }
    </style>
  </defs>
  <path id="pearl_kopia" data-name="pearl kopia" class="cls-1" d="M1344.19,604.884c4.84-.759,10.06-8.269,5.42-34.31s-5.29-29.036-9.93-32.5-15.23-69.667-21.67-92.1-11.16-65.152-17.16-74.037-14.32-56.123-18.96-70.426-13.87-29.94-18.06-32.5,4.64,29.2,5.42,49.659,13.22,88.34,20.77,120.085,23.6,102.336,19.86,109.251c-4.64,4.658-24.05-8.789-24.63,10.315-0.16,5.282,2.02,14.631-7.87,17.675-13.67,4.206,1.02-10.076-9.03-54.174s-12.07-62.444-11.74-93-3.04-65.152-6.32-66.814-7.55-46.191-7.22-54.174-3.49-19.1-2.71-34.31-8.91-48-13.55-49.659-4.84,3.919-3.61,18.058-3.03,28.749.9,42.436,8.71,96.466,9.03,114.668,9.61,101.884,11.74,120.988,5.09,53.579,3.61,65.912-2.58,53.578,0,53.271,19.99-.144,32.51,0,23.6-3.3,25.28-7.224-8.45-23.167-1.81-25.281C1308.71,605.338,1342.78,605.106,1344.19,604.884ZM1016.73,413.671a11.511,11.511,0,0,0,10.31-2.605c4.79-4.525,5.6-9.47,2.32-11.595s-8.59-14.6-7.73-24.736c1.54-18.288,7.22-21.985,12.87-25.371s8.35-3.16,10.83-4.514,8.54-2.9,15.99.26c14.9,6.546,3.44,13.066-1.41,9.8-2.69-1.807-3.52-8.578,3.48-7.224s10.16,7.771,8.12,10.7c-3.06,5.45-16.25,5.35-22.57,2.189s-6.9-6.638-9.93-8.509c-4.64-2.863-3.39-3.16-.9-9.029s11.25-10.835,22.57-8c12.09,2.421,19.86,15.219,23.48,17.025s10.99-2.6-3.01-24.491c-4.22-6.6-9.59-9.5-14.59-10.16-11.59-1.522-21.16,9.077-9.49,13.884,12.79,5.272,8.45,9.321,3.61,10.835-9.89,3.094-15.85,21.938,3.1,23.346,26.63,1.978,38.29-9.786,45.97,13.886,8.99,27.694-18.5,25.845-37.1,61.067-10.02,18.971-14.48,30.292-34.01,34.012a51.973,51.973,0,0,1-16.68-.329c-4.81-1.03-9.1-3.179-10.38-7.4-1.61-3.155.61-4.264-5.98-8.107-7.248-2.934-4.52-7.768-.2-8.126,3.38-.839,1.82.1,9.27,0.773s8.81,6.485-.94,8.769c-12.47,2.92-25.355-17.945-15.35-21.28,2.03-.677,7.22,9.481,26.18,8.126s14.3-5.414,11.36-6.06c-7.06-1.552-16.1-5.9-19.48-8.386a19.575,19.575,0,0,0-6.71-2.936c-1.85-.457-9.71-4.276-7.43-9.926,1.23-3.027,6.92-.411,5.41,3.865-3.15,8.955-7.66,1.646-10.233,2.677-2.39.956-5.418,1.354-5.418,4.514s0,6.546,7.224,6.321c3.607,0.451,7,2.934,11.737,2.708s10.38,4.063,18.96,5.418,16.25-1.129,9.93,8.126c-4.71,6.9-18.67,6.072-21.37,7.34-3.19,1.5-.59,10.555,0,13.141,1.35,5.99,3.83,7.7,5.41,8.5,17.3,8.865,37.18-8.218,44.86,13.452s9.48,18.283,3.61,25.281-25.73,28.927-20.77,42.436c0.68,5.418,6.32.677,17.16-9.932s16.47-21.669,33.4-27.087,34.09-21.669,55.98-25.281,34.99-11.512,55.08-11.737,22.8-.226,22.57-2.709-0.22-16.693-5.42-17.155c-5.14-.458-15.12-4.1-25.54-2.008-1.07.215-30.44-14.584-18.6-51.738,10.52-33.023-13.72,6.42-25.38.475s-3.99-17.53-.9-17.155,5.34,4.44,0,6.32-14.22,3.236-12.64,12.641,17.38,12.265,24.38,2.708,0-28.441-7.23-32.5-26.18-24.83-33.4-34.31-10.16-5.643-19.87-18.058-22.34-23.7-32.5-27.99-17.38-13.092-27.99-16.252-18.06-10.383-32.51-12.641-20.989.9-27.986,7.224-12.262,18.654-13.544,26.184c-1.806,10.609,7.555,11.066,9.932,11.737,26.668,7.537,21.348,26.32,21.068,27.462-1.38,5.77-5.08,31.354-10.817,40.2-5.092,7.853-2.78,11.815-1.546,13.141,1.71,1.838,5.653,3.622,6.183,3.865,2.81,1.288,7.19,3.805,11.6,3.092,2.38-.386,2.24-3.965-1.55-3.865-14.751.387-.58,5.024,4.64,5.411M986.844,286.613c-5.357-4.417,1.478-20.623,3.41-25.733s9.806-16.56,14.446-20.766,6.65-7.531,18.96-21.67,49.99-15.657,52.37-18.961,6.64-7.079,20.77-11.737,4.38-1.211,20.76-16.252,29.67-10.692,55.98-8.127,25.16,8.27,31.6,11.738,18.84,9.624,32.51,23.476,22.44,48.9,24.38,58.688-4.64,5.561-9.03.9-3.74,8.721-.91,23.475,8.91,71.473,10.84,104.736,13.42,100.817,21.67,136.338,8.9,78.244,18.96,76.746,15.22,1.047,11.74-18.961-0.13-16.108,7.22-24.378-7.35-46.356,1.81-23.475,18.83,59.735,11.73,67.717c-2.55,2.875-16.71,8.588-17.26,12.641-0.78,5.725,12.62,53.866,12.75,82.163s13.42,65.153-3.61,68.62-24.06,19.105-39.73,0-47.98-10.691-64.11-15.349-35.79-2.113-36.11-18.961-21.8-44.1-18.96-68.62-23.6-37.326-25.28-59.591-10.96-20.172-27.09-22.573-33.99,9.173-49.66,18.961-29.92,27.231-32.5,38.825-6.45,36.259-27.09,74.94S980.647,768,986.642,767.406s26.958-47.71,37.918-66.814,23.35-37.778,24.38-54.174,40.51-27.846,47.86-45.145,26.5-19.269,42.43-19.864,33.73,15.493,52.37,23.475,35.99,23.168,62.3,49.66,45.92,94.948,41.53,109.25-26.76,15.945-54.17,7.224-71.46.143-104.74,0.9-46.62-18.366-42.43-28.893,8.9-37.778-2.71-47.854-4.64-7.982-3.61-31.6,20.64-49.064,26.18-53.271,19.29,18.2,27.99,36.116,12.51,33.1,1.81,43.339-7.35,31.293-8.13,48.756-2.83,37.614-23.48,37.019-16.82,16.4-35.21-18.058,3.04-52.676-7.22-68.62-20.44-6.628-18.96,18.961,27.41,66.958,21.67,74.94-38.5-7.531-57.79-4.514-44.917,9.029-46.046-.9,29.344-79.455,38.826-94.8,20.54-37.471,19.86-46.951,1.36-27.313,8.13-37.019,9.03-16.7,14.44-27.087c7-22.572,15.68-33.858,23.58-39.05s-0.33-13.49,4.64-17.779,35.44-19.691,56.66-27.14c16.14-5.667,31.69-7.993,39.19-15.375,12.6-12.4-5.6-40.742-24.75-28.867-17.84,11.069-5.34,26.788,3.11,29.64s24.11-7.663,14.95-19.708-28.61-2.552-18.06,8.126c6.52,6.592,24.51-10.979,7.23-25.281-2.84-3.468-9.03-12.19-10.84-5.418a84.768,84.768,0,0,1-14.15,22.183c-8.81,9.577-20.82,19.962-38.65,26.282s-30.94,7.381-48.32,12.029c-19.41,5.192-27.99-3.16-35.22-7.223s-9.927-10.383-12.636-19.864-13.769-33.407-16.252-45.144-8.126-39.277-5.418-56.883,4.289-16.929,5.418-17.155-2.483-9.255,7.223-11.738c5.417,0.226,14.225,1.806,13.545,8.126a4.364,4.364,0,0,1-8.128-2.708c0.677-3.838,7.868-5.869,11.478,4.514-1.08,9.431-13.119,6.608-16.505,6.834s-7.613-1.642-10.322-15.863c0.492-1.352.812-17.231,13.544-16.252,7.536,0.58,17.6,14.4,16.553,19.868-2.03,10.624-7.914,11.261-8.5,11.6-6.32,3.612-16.176-7.618-7.73-17.779,4.954-5.96,13.038-6.953,3.865-17.006C987.758,306.121,989.639,288.917,986.844,286.613ZM1059.51,272.7c5.23-10.144,5.01-10.239,13.81-10.013s40.19,26.6,44.93,25.473,10.28,1.615,8.51-27.828,36.56,8.572,34.01-3.865-5.21-20.927-9.28-28.6,11.67,2.091,20.25,7.734,27.99,26.861,36.11,37.922,14.67,27.313-1.8,13.543-14.68-6.094-6.32,1.806,27.99,37.7,25.28,52.368,0,25.959,0,29.8-8.81,21.218-16.26,23.475-5.19,7.675-11.73,10.835c-17.16,5.417-17.83,13.168-19.87,24.378-1.05,5.8-2.38,12.265,3.62,24.379,13.39,27.055,6.65,29.769,4.51,32.5-4.84,6.176-44.82,24.522-45.15,30.7s-4.64,48,3.62,53.271,33.73-34.166,51.46-33.407,24.25,71.924,34.31,80.358,28.32,19.105,27.99,4.514-4.19-41.841,1.81-42.436-3.74-30.1-9.03-86.678-7.35-133.034-15.35-170.648-16.38-46.355-20.77-53.27,2.13-12.949-5.42-19.864-7.34-14.754.91-13.544,4.39-.307-7.23-20.766c-3.8-6.706-13.42-13.027-24.71-18.356-5.86-2.766-56.46-11.881-54.74-15.052,0.73-1.351,9.2-.826,20.06,2.657,23.93,7.674,33.54,25.477,24.18,19.916s-31.27-13.4-36.11-10.835,31.47,13.236,43.33,30.7-1.48-2.565-27.08-11.738-37.6.144-74.04,14.446-33.93,38.638-55.98,41.534c-15.3,2.009-.02,3.708,13.57,5.368S1055.38,280.686,1059.51,272.7Z" transform="translate(-967.812 -160)"/>
</svg>
