<svg xmlns="http://www.w3.org/2000/svg" width="591.219" height="324.468" viewBox="0 0 591.219 324.468">
  <defs>
    <style>
      .cls-1 {
        fill: none;
        stroke: #00ffea;
        stroke-linecap: round;
        stroke-linejoin: round;
        stroke-width: 1.5px;
        fill-rule: evenodd;
      }
    </style>
  </defs>
  <path id="Kształt_22" data-name="Kształt 22" class="cls-1" d="M700.048,532.231s-10.281.493-10.481,3-1.268,3.876-4.49,4.119-8.816,2.7-16.294,4.828-11.166,4.247-11.141,1.853-0.167-11.071-2.426-10.811S314.1,594.782,314.1,594.782s0.626-3.074-3.128-2.774-19.922-.063-18.824,7.052,5.18,14.6,6.19,9.4-4.544-15.2-3.352-16.382,3.33-3.413,15.963-5.4c1.178-.41-0.219-1.364,3.434-1.983s288.535-47.523,288.535-47.523,5.141,2.214,9.271,1.516,12.493-3.557,10.392-4.473-9.834-13.411-12.051-18.229-3.971-11.453.549-5.659,14.84,22.716,13.219,22.9,26.71-3.522,27.943-3.158,8.57-.834,15.083-0.313,19.056-2.766,19.84-.006,2.385,5.637-5.547,6.256-20.438,2.328-19.816,5.334-4.5,6.407-8.167,7.006-9.444-6.92-16.252-4.355-13.677,7.43-13.319,9.979,0.1,29.7,5.536,28.1,29.088-14.207,27.541-19.717-4.541-14.024-12.116-14.375-8-5.466-13.632-5.1-34.645,4.425-42.1,9.041S578.672,553,571.855,557.4s-7.629,6.534-10.7,9.23-14.7,9.091-23.735,9.124-53.282,5.721-68.9,11.538S433.9,617.121,457.7,624.066s50.322,24.288,72.031,11.075,47.907-20.874,58.192-22.149,18.988-6.849,22.743-10.841,12.908-14.4,15.343-15.727,0.554,0.29-2.641,9.362c-2.094,6.045-5.654,4.929-7.931,3.966-6.783-2.869-5.87-5.145-10.72-7.9-12.557-7.145-10.892-38.444-2.5-26.8s14.959,27.151,9.543,25.783-16.2-10.956-26.732-1.357-62.1,19.931-92.962,20.09-15.009,17.549,6.415,23.009,20.517,5.052.643,15.656c-7.229,5.4-69.226,39.108-90.335,39.18s-19.71,1.934-27.765,6.109-49.119,16.432-68.1,24.816-46.252-20.9-61.758-42.192-13.215-35.4,1.286-42.72,25.03-12.449,30.031-12.759,9.226-8.095,16.93-9.011,17.447-3.11,16.931-9.012,2-5.071,3.192-1.08,1.751,6.721,11.254,4.951c3.719-.693,39.63-7.344,81.69-15.16,65.013-12.081,144.717-26.948,142.937-26.9a21.117,21.117,0,0,1,9.209-6.7c4.853-1.611,6.993-4.281-2.555-2.443S322.8,597.29,322.8,597.29s-3.411-1.5-1.918-7.95,27.875-30.919,37.023-44.272,17.482-31.4,21.81-36.252,24.743-48.572,33.276-57.372,16.68-9,27.677-7.584,46.04-2.1,2.933,14.334c-25.84,9.328-33.122-3.716-18.9-8.934s7.489,16.722.32,34.924,27.336,4.5,12.139,19.7-27.972,6.857-18.566-8.362,16.075-25.251,21.35-29.117,25.569-15.086,36.877-22.054,51.392-33.811,58.693-38.466,15.87-11.394,23.493-8.221,10.959,4.225,14.34,16.907,18.633,56.844,21.358,64.754,12.874,20.1,12.405,24.13-2.968,6.541.8,13.278,6.781,23.427-13.295,15.308c-9.429-5.872-26.286-24.263-30.4-32.822-1.942-4.47-2.141-5.576-4.957-8.587s-15.117-24.414-12.341-27.983,4.674-7.983,4.025-16.824-0.033-24.729,5.741-17.817,6,7.854,3.659,11.626S544.755,465.3,534.416,471.4s-16.29,6.6-16.116,7.778,4.013,9.38-5.565,20.767-16.3,22.444-18.842,21.563-6.111-8.816-5.594-4.4,6.453,14.268,6.391,17.68,5.458,16.178,13.019,14.617,4.531-21.448,3.646-28.054-1.639-3.385-3.854-.065-9.54,8.046-3.894,9.118,6.633-9.878,7.482-13.479,12.659-.763,16.89.17,15.438-2.558,17.22.744,8,20.245,9.938,22.5,18.5-5.852,21.952-4.279-0.345-2.8-4.715-9.489-3.414-10.755-6.787-14.4-7.185-10.677-6.94-12.021-6.758-2.337-7.642-3.983-6.707,4.693-21.557,1-0.925-8.758,6.692-6.916,14.459,3.348,17.792.412,18.719-2.163,23.209,1.864S604.715,531.8,613.4,534.175s13.369,2.451,18.453,1.557,21.686-3.3,24.089-3.223,4.06,1.53,13.366.679,18.246-2.653,19.752-1.482,9.508-3.9,19.267.324,15.081,11.074,24.284-3.335c6.2-9.71,4.662,12.492,9.735,12.231s5.09-40.48,11.236-41.641c4.011-.758,11.939,59.808,17.846,57.5,3.166-1.235,4.461-47.535,6.61-48.251s7.986,23.629,10.575,23.134,5.5-16.594,15.2-19.829,22.358,0.261,26.439-12.558" transform="translate(-239.781 -396.094)"/>
</svg>
