<svg xmlns="http://www.w3.org/2000/svg" width="436.062" height="601.87" viewBox="0 0 436.062 601.87">
  <defs>
    <style>
      .cls-1 {
        fill: none;
        stroke: #0c3c3a;
        stroke-linecap: round;
        stroke-linejoin: round;
        stroke-width: 1.5px;
        fill-rule: evenodd;
      }
    </style>
  </defs>
  <path id="Kształt_2_kopia_3" data-name="Kształt 2 kopia 3" class="cls-1" d="M519.205,3697.9c-10.989,15-21.029,20.83-42.112,78.45-18.1,38.99-46.686,73.95-42.212,33.69s28.117-68.74,42.18-84.36c17.255-19.17,56.323-49.76,14.889,50.67-16.77,50.26-21.919,77.79-9.776,77.15s31.742-25.86,41.968-42.48c10.192-16.58,20.785-49.42,12.233-58.24C519.254,3735.13,528.2,3685.62,519.205,3697.9Zm30.712-6.73c11.566-4.5,1.278,19.81,10.225,38.34,23.647,40.27,43.458,19.81,100.976,10.23s49.849,5.11,48.571,12.78c-5.113,24.29,10.864,33.87,37.067,67.74s17.343,53.72,17.894,58.8c1.6,14.74-1.917,22.37,5.113,33.23,7.669,13.64,7.669,39.63,7.669,39.63s-6.391-23.01-24.285-30.68c13.046-10.06,6.391-28.97,12.781-28.12,15.7,10.47,19.173,38.34,24.286,52.4s8.308,19.82,0,34.52c-10.864,18.53-40.263,10.86-31.954-7.67s-14.06-53.05-29.4-72.86-97.781-48.57-111.2-79.25c-8.61-20.19-11.4-32.74-26.414-34.26-16.669-1.68-32.176,10.21-39.95,27.13-5.05,10.99-46.6,47.24-52.506,53.15-21.065,21.05-45.641,49.54-57.518,95.86l-12.782,49.85s-31.954,63.91-2.556,123.98c13.421,17.9,0,38.35,19.173,42.18s20.45,3.84,20.45,3.84,69.661,5.75,109.923,14.06,57.518,10.22,49.849-15.34-12.782-27.48-46.014-28.12-33.233,0-33.233,0-67.1,3.83-11.5,21.73,102.254,28.76,111.2,23.01c8.947-7.03,3.2-29.4-5.113-31.96s-11.5,13.42-3.834,23.01,24.924,3.19,21.729-8.95,2.556-24.92-43.458-42.18c-21.729-15.34-14.7-26.2-10.225-44.74s15.977-95.86-51.128-126.53-129.095,28.75-126.539,80.52-33.232,19.17-46.014,51.13-20.451,8.94-20.451,8.94-0.639,38.35,49.849,39.63-6.391-91.39,61.352-107.37,96.5,28.76,85.638,60.08,4.474,31.31,14.06,26.84,14.7-1.28,21.729,6.39,60.074,35.15,75.412,35.79,92.029,12.14,90.751-3.84-17.256-26.2-38.346-31.95,1.279,16.61,15.339,24.28,29.4,19.18,37.067,10.23c3.834-6.39-3.2-23.01-10.226-21.73s9.587,21.09,17.9,15.34-2.557-21.09-12.782-24.29c-7.03-3.19-8.947-12.78-24.285-16.61s-51.127,0-35.789-16.62,33.232-62.63,21.729-84.36c-2.886-5.45-50.174-19-54.962-8.95-6.391,13.42-35.789,150.19-12.782,148.27,12.782-12.78,35.855-35.88,48.571-85.64,14.7-57.51,61.357-112.48,26.842-129.09-80.236-38.61-177.411,31.25-204.508-10.23-25.3-40.77-6.455-72.36-5.177-76.83,0,0,5.457-9.49,13.369,3.56,3.724,6.15,5.914,15.14,5.914,15.14,1.842,7.29,1.322,6.66,7.623,19.79,15.338,31.95,62.63,8.31,83.081-1.28s67.743-1.92,106.089,31.95,25.563,58.8,11.5,65.19-4.473-10.22-16.616-1.28c-17.255,9.59-44.1-11.5-61.353-25.56s-54.961-3.2-99.7-20.45-45.375-98.42-39.624-125.26,21.09-49.21,51.127-53.69c57.518,8.95,22.891,14.02,90.751,67.75,15.338,12.14,89.472,41.54,84.359,8.94s-38.345-92.02-42.179-111.2,26.2-69.66-15.338-42.18-69.022-12.78-69.022-12.78,0.639-.64-23.007,3.84-38.345-1.92-42.18-23.01,27.481-24.93,34.511-20.45-6.391,29.4-21.729,30.67-25.564,12.79-29.4,7.67c-4.474-24.92,17.894-51.12,43.458-48.57s46.653,1.28,65.187,1.28,14.7,1.28-5.113,20.45,24.925,67.11,38.345,72.86,19.173-1.28,30.677-17.9,10.864-35.15,8.947-44.73-20.451-35.79-20.451-35.79,0-.64-7.669,1.28-22.368,0-7.669,8.94c22.368,17.26,27.481,14.06,23.007-1.27-7.03-21.09-27.481-19.18-51.127-21.73s-39.624-11.51-69.021-3.84-48.571,23.01-48.571,23.01-10.226,5.75-21.729,25.56-12.782,21.73-12.782,21.73c-19.812,8.31-38.1,23.66-57.518,40.9-35.793,31.77-75.49,143.99-25.563,135.49,49.874-8.5,73.671-49.04,85.577-86.79,3.451-10.95,4.729-33.11,9.679-47.24C538.671,3703.51,543.573,3693.63,549.917,3691.17Z" transform="translate(-360 -3600.47)"/>
</svg>
