<svg xmlns="http://www.w3.org/2000/svg" width="363.122" height="594.531" viewBox="0 0 363.122 594.531">
  <defs>
    <style>
      .cls-1 {
        fill: none;
        stroke: #0c3c3a;
        stroke-linecap: round;
        stroke-linejoin: round;
        stroke-width: 1.5px;
        fill-rule: evenodd;
      }
    </style>
  </defs>
  <path id="vinci" class="cls-1" d="M1139.3,242.86c2.29-10.273,18.38-8.669,23.97-9.588,40.43-3.031,96.56-2.055,96.56-2.055l-0.68-4.109s-16.46-.164-45.88,0c-33.79.189-89.03,5.479-89.03,5.479V236.7s22.57-1.762,23.97-2.054c0.71,6.1,1.57,6.455,2.05,9.587,2.54,10.209,6.16,15.752,6.16,15.752s20.98-12.949,52.05-16.436,49.99-.685,49.99-0.685-1.03,5.581-4.1,5.478c-3.88-.1-11.43,8.092-13.7,14.382-3.87,10.4,4.11,36.981,4.11,36.981s-0.56,4.89-5.48,3.424c-1.73-.516-3.2-1.984-5.48-1.369-1.94.525,3.33-1.668,3.42-4.794,0.24-7.671.92-9.511-4.1-30.818-9.49-25.474-30.92-17.842-39.04-15.066-10.34,6.542-9.18,15.03-6.85,15.066s4.69,0.82,9.59-2.054,15.31-3.974,17.12-1.37a16.934,16.934,0,0,0,4.11,4.109s-0.62,1.5-3.42,2.054c-3.67,1.235-6.44,1.848-8.91,0s-1.13-6.028,2.74-6.848,6.64,7.33.69,8.9c-7.26,1.919-10.72.649-21.23-4.109-11.71-8.011-26.17-7.588-43.83,2.739C1140.92,271.805,1139.3,242.86,1139.3,242.86Zm79.44,111.628a29.074,29.074,0,0,1-10.95,0c-6.17-1.141-23.63-8.446-35.61-17.806s-15.76-19.575-21.23-21.23-5.14-1.426-5.48-5.478-13.7-22.315-18.49-49.309c-2.06-9.7-.35-39.264,5.47-54.787s16.78-25.738,41.78-28.078c16.78-1.826,41.43-2.111,60.27,15.751s23.11,32.131,25.33,54.787c0.35,8.447-.17,10.216-2.73,15.067-1.37,4.337-6.68,6.277-8.91,1.369-1.03-2.339.86-6.049,5.48-4.793,2.91,1.426,4.55,7.623-3.42,8.9-4.63.742-7.19-2.454-9.59-2.054s4.79-7.933,13.7-7.533c3.93,0.228.17,7.647,2.74,13.7s1.88,24.939-4.11,38.35c-1.72,6.906-3.94,12.27-7.54,17.121-3.42,4.338-3.14,15.5-6.16,19.861-5.99,8.661-22.26,7.476-29.45,3.424-9.07-3.71-21.91-6.392-28.08-16.436s-4.45-9.645-6.16-16.436-3.94-33.443,2.05-47.939c3.09-9.531,10.28-51.933,26.03-56.157,13.69-3.2,23.97-1.94,26.02-7.533,0.34-4.908-13.52-22.657-27.39-25.339s-55.3.8-65.06,35.612,0.85,66.2,10.96,86.974c5.82,16.493,5.13,40.691,2.05,47.254-0.87,1.863-3.44,21.922-5.48,24.654-2.22.571-18.66,12.955-21.23,17.806-2.05-1.484-9.59,4.736-12.33,6.848s-23.96,10.044-33.55,25.339c-8.39,13.754-16.78,36.924-19.86,49.993s-6.85,13.982-7.54,22.6A32.586,32.586,0,0,1,1040,516.11c-4.62,3.823-6.85,7.989-7.53,13.012a10.8,10.8,0,0,1-6.85,8.9c-2.74.914-16.26,7.99-13.7,15.752-1.54,2.454,4.8,2.853,8.91,8.9,3.42,2.8,7.19,2.511,8.9,2.739s8.9-6.734,15.07-7.533a26.859,26.859,0,0,1,11.64-8.9c3.59-1.484,5.99-11.357,12.32-16.436s13.87-10.159,29.45-10.273c7.19-2.682,11.82-4.851,17.81-4.794,4.45-3.367,13.52-4.337,17.8-4.109,3.6-.456,14.39,2.34,26.71,1.37s13.19-3.652,20.55,1.37c5.82,3.138,16.78,5.592,22.6,8.9,5.99,3.481,7.36,6.448,5.48,8.218s-9.76-1.427-7.54-4.794c0.69-2,14.32,2.132,5.48,5.478-3.76,1.427-26.02-4.793-26.02-4.793s-7.71-1.6-10.27-2.74-5.83.97-13.02,2.74c-5.13.913-6.5-.914-8.9-6.849s-13.87-2.967-10.27-4.794,15.06-3.481,19.17-4.794,10.45-6.049,13.02-5.478c1.33,0.3,4.76-3.65,4.79-6.849,0.94-1.372,2.03-6.846,5.48-.684,1.85,5.019,2.97,13.7-4.11,15.066-7.93,1.534-8.7,4.032-17.81,4.109-9.14.078-6.88,4.884-6.84,13.012,0.68,3.481,6.67,4.394,14.38,6.163s12.67,0.628,20.54,3.425c6.68,2.111,31.33,5.593,32.87,10.272,1.54,3.31-.68,5.079-2.74,4.794s-5.82-1.6-4.79-4.109,7.71-.571,7.53,2.055-2.39,3.709-7.53,3.424a31.446,31.446,0,0,1-10.27-2.055c-2.74-.97-14.04.114-21.23-1.369s-15.41-4.167-22.6-4.109-9.99,2.848-4.11,5.478c7.02,3.139,17.29,4.395,20.54,4.794s16.1,0.97,18.5,1.37,5.13-3.653,12.32,2.054c2.57,1.427.52,3.2-3.42,5.479-3.94.913-4.45-2.8-2.06-4.109,1.89-1.141,15.58-1.6-1.37,6.163-8.21,1.77-8.73.457-14.38,1.37a55.387,55.387,0,0,1-19.17,0c-6.51-1.312-23.12-4.68-26.71-3.424s-21.92-7.933-21.92,2.054c0.52,5.194,30.82,11.586,41.78,13.012,10.78,0.571,17.98-1.084,26.71-6.848-1.03-1.826,3.94-6.563,6.85-3.424,0.85,1.427-2.56,3.449-6.85,4.109-4.45.685-4.66,1.032-18.49,2.054-9.77.722-17.98-4-28.77-6.848s-14.55-.913-13.01.685,13.36,7.647-9.59,5.479-22.42-12.042-27.39-8.9c-4.11,1.94-4.11-4,.69-2.74s1.36,4.737-1.37,7.533-4.63,8.333-6.85,8.219-2.23-3.311-4.11-2.74-11.47-2.967-13.7-11.642-3.94-16.493-1.37-21.915c0.17-4.052-1.03-4-1.37-9.588s2.23-12.041-.68-16.436c-1.03-5.421-1.37-17.52,0-23.969s8.73-1.255,11.64-9.588,2.91-24.54,4.11-32.187,1.71-14.1,0-11.642-7.02,8.846-6.85,14.381-2.74,24.6-.68,29.448,7.01,5.593,6.16,14.382-0.86,11.585-2.06,16.436-11.81,1.484-16.43,6.164-4.8,4.793-4.8,4.793-1.88,3.025-8.21,2.74-7.02,9.359-15.07,10.272-10.96,5.764-11.64,9.588-6.17,2.682-11.64,5.479-5.483,2.739-5.483,2.739-6.335,1.655-7.533,5.479-4.794,7.476-5.479,11.642-3.938,15.352-7.533,16.436-5.479,13.811-5.479,24.654,3.767,24.6,8.218,22.6,15.238-9.131,27.389-13.7,13.36-15.123,26.71-19.175,23.29-17.692,27.4-23.97c2.91-4.565,4.45-3.823,6.16-2.739s-0.17,3.71-2.05,4.109-4.28-4.337-4.8-8.9-5.99-11.87-4.79-20.545c-0.69-2.511-1.71-1.256-5.48,1.37s5.09,15.275-1.37,24.654-21.28,15.96-29.45,19.86-3.3,7.228-10.96,13.012S985,633.6,981.106,633.217s-3.3-1.675-4.109-.685a16.726,16.726,0,0,0-2.74,12.327c1.247,5.955,3.89,32.4,21.915,39.721s11.768-13.488,23.288-23.285,28.2-10.749,35.61-26.709,24.09-50.811,30.13-48.623,7.89,20.868,48.62,11.642c20.65-8.084,19.53-10.634,37.67-10.272s11.87-5.081,20.55-4.794c-0.69-.2,1.21.019,0.68,0.685-0.78.98-4.04,4.36-15.07,8.9-18.01,7.423-37.79,9.627-57.52,23.969s-35.63-28.382-43.15-4.794c-2.41,7.578-5.61,9.4,0,21.915s25.89,17.388,41.09,17.121,20.42,6.887,35.61-3.424,13.79-2.733,21.92-12.328c11.28-13.307,8.99-23.962,12.33-18.49s-7.67,26.291-7.54,28.763,15.85-1.1,20.55-8.218c2.35-3.559,9.21-3.248,9.33-18.389,0.02-2.6.58-13.786,4.37-15.853s16.53-11.375,19.17-24.654c4.36-12.709,4.53-16.681,6.85-12.327,8.56,16.094,20.81-6.508,27.39-7.533s28-25.341,29.45-29.448-3.16-5.481-7.53-4.109-13.43,7.531-15.75,9.587-3.85-5.137,3.42-12.327c6.24-5.819,20.13-3.768,13.7-6.848s9.51-15.068,7.53-33.557,7.11-1.029,8.22-10.273,9.51,22.941,10.96,39.036,7.6,31.629,8.9,47.254c1.73,20.891-6.3,46.637-7.53,51.363-9.27,35.31.92,44.929-23.29,55.471-10.29,3.923-7.4,2.7-13.01,8.9s-9.46,13.655-10.96,15.752,24.48-3.748,30.82-7.534,2.9,4.128,4.11,14.382-27.23,15.085-39.72,34.242-35,47.881-63.01,38.351c-5.42-1.846-14-14.093-22.6-15.067-2.05-.233-14.53-0.816-24.46-13.828-9.01-11.808-28.46-21.991-39.23-25.207-25.85-7.726-24.82-4.26-19.86-14.382s1.2-.835,13.01,2.054,48.46-3.574,54.79,1.37,15.24,29.983,31.5,41.775,21.75,14.574,28.77,8.218,20.72-3.574,25.34-26.024c4.62-19.367-3.65-3.715-5.48-16.436s1.17,16.92-19.18,7.534c-60.12-27.729-79.47-23.853-32.19-38.351,1.06-7.65,20.18,13.813,61.64-3.424,16.48-6.853,14.74.4,11.64,3.424s-21.91,9.93-15.75,16.436c3.11,5.019,2.71,5.6,1.37,12.327s-0.03,16.21,24.66-12.327,33.87-23.853,39.03-34.927,16.75-82.749,16.44-98.616-6.88-63.574-6.85-73.963,0.66-24.195-11.64-41.775-33.59-39.261-39.72-43.145c-3.4-3.2-3.46,4.568-11.65,15.067s0.32,8.334,8.91,22.6-5.17,2.172-11.65,12.327-19.54,8.335-19.86,21.23c0.37,7.075,6.25,1.144,3.43-3.424-1-4.568-1.06-8.786-4.8-10.272s-3.42-1.37-3.42-1.37-4.14-7.074-10.27-10.273-7.91-6.389-18.49-4.793-23.32,13.813-25.34,19.175c-0.66,1.6,1.11,3.655-.69,6.164s-0.03,11.416,4.8,12.327c4.13-1.372,7.05-10.727,4.11-11.643s-2.54-.454-4.8-2.054-7.79-7.987-7.53-3.424-4.14,19.406,4.79,25.339c4.82,3.65,3.4-5.248,13.01-7.534s7.97,2.514,18.5,2.055c8.01,0.454,5.45,7.079,2.05,6.848s-4.82-10.27-11.64-13.7-3.91-5.933,7.53-5.479,18.23-.226,15.75-6.848,5.45-2.737,7.54-2.74,3.85-8.215.68-13.012-7.33-11.411-6.85-14.381-3.45,0-4.79,5.478-2.77,9.591-7.54,8.218-24.22,4.112-19.86,15.752c4.37,5.476,15.96-2.965,23.97,2.739s19.38,6.166,26.03,15.066c2.77,6.276,9.21,10.9,7.53,17.806-1.2,4.918-5.05,4.8-8.22,4.794s-6.42-5.476-14.38-9.588-5.05-7.987-8.9-11.642,2.71-10.27,15.06,2.74,18.01,12.329,16.44,17.12-4.14,7.08-7.53,5.479c-2.26-.459-2.2,2.285-10.96.685-6.32-1.155-9.16-3.878-17.12-.685s-21.94-3.65-25.34-11.642,4.54-13.466,13.7-5.479c5.96,6.846,4.08,8.677,15.06,10.958,7.34,2.052,4.54,3.655,7.54,15.066,2.76,9.585.42,22.83-2.74,21.23s-7.56-10.042-13.01-13.7-16.24-12.781-2.06-9.588,14.58,3.427,15.75,13.012,8.19,20.548,9.59,30.133,2.1-5.84,6.16-10.272c0.3-2.207,3.13,3.233,3.43,4.794s3.47-.362,4.11-2.055,0.68-1.37.68-1.37a11.159,11.159,0,0,0,.69-11.642c-3.3-6.658-10.23-9.949-9.59-2.054s1.93,10.253,4.11,10.272,7.23,6.316,6.16,10.273c1.84,1.389,5.18-2.245,4.79-4.794,8.77-5.479,4.15,3.417,2.74,3.424-1.27-2.6-.78-4.8.69-5.479s2.44-.533,2.05-5.478-1.15-5.841-3.42-7.534-3.89-4.984-6.16-8.218-8.35-2.587-10.28-2.739-8.17,4.261-9.58,8.9-3.38,9.226-4.8,10.272-3.72,4.775-3.42,7.534c0.54,5.022-3.9,12.65-14.38,19.175-7.24,5.669-10.75,5.8-7.54,15.067s-4.58,29.257-2.05,38.35,3.82,16.384,4.79,19.861,4.78,0.5,6.17,4.794,0.94-5.12,4.79-5.479,4.91,3.783,5.48,5.479,0.66,7.07,0,8.218c-0.81.873-2.49-3.477-4.11-4.109s-5.77-2.244-2.74-4.109,1.21,5.289,8.22-1.37c3.58-.907,2.86.359,3.42-1.37s2.45-2.517,4.11-.685c2.21,3.34,2.17,3.1,0,2.74-1.62-.268-9.72,1.294-8.22-6.849,2.3-3.76,4.5,2.551,10.96,1.37,2.76,0.189,3.42.685,3.42,0.685s-1.61-2.814-2.73-3.424-1.28-4.184-5.48-4.109-1.31,2.548,0,2.054c2.53-.952,4.32-4.754,6.16-4.794s-1.39-.417-2.74-0.685-1.37,0-1.37,0a7.733,7.733,0,0,0-4.79-2.739c-2.38-.5-5.5.952-6.17,2.739s3.64,3.464,1.37,2.74-4.01-.646-3.42-6.164-0.25-6.581,2.74-8.9,5.8-14.8,4.11-17.12-0.13-4.413,2.05-6.164,0-.685,0-0.685,8.09-19.136,0-21.23-13.14-1.1-14.38,6.164c-0.78,4.57-12.43-1.5-15.75,20.545s3.78,28.858,0,37.666-18.82,11.508-32.87,21.23c-12,5.612-29.78,5.116-39.72.685-6.98-2.606-14.03,4.431-30.82-5.479s-26.36-22.277-34.24-21.23-10.61,3.519-8.91,7.533c1.25,3.33,10.63,6.943,26.03,13.7s8.34,0.551,0-4.794-8.22-5.479-8.22-5.479-5.81-4.927-9.59-4.109-7.64.323-10.27,5.479-2.74,5.479-2.74,5.479-5.91,3.229-6.85,4.794c-1.72,2.873-5.27,11.936-15.06,9.587-6.27-1.5-9.03,17.255-7.54,27.394,0.95,6.441,2.59,20.435,4.11,20.545,7.66,0.551,4.67-14.02,6.16-18.491s4.45-5.573,8.22-3.424,0.79,7.667-4.11,2.055,4.67-14.705,2.74-14.382c-7.41-.134-4.91-1.464-6.16-6.848s-4.69-6.943-3.42-11.643,4.67-4.888,5.47-4.109c12.45,2.378,13.33-2.965,21.23-3.424s8.22-.685,8.22-0.685,16.75,17.238,28.08,17.121c2.43-2.856,6.14-8.1,8.22-7.533s-9.96,25.456-6.17,34.242-8.24,2.856-24.65,6.848-25.02-2.28-28.76.685-3.43,2.74-3.43,2.74-0.71,6.964,4.8,10.272,17.43-5.02,17.12-6.848,0-2.055,0-2.055-10.3-7.759-14.38-.685,5.1,1.144,14.38-8.218,27.71-26.249,56.15-21.914,58.51,2.174,70.54-6.164c15.49-10.734,15.99-19.756,29.45-13.012,14.32,7.175,36.99,7.674,45.2.685,11.91-10.139,19.35-30.625,14.38-42.46s-9.76-28.571-1.37-37.666,10.45-25.147,3.43-34.242-10.1-30.625-1.37-32.872,23.8-35.077,17.8-58.9,1.61-28.549-6.85-38.351-12.43-20.673-19.17-28.078-26.54-23.628-30.82-26.709c-3.76-2.225-4.22-4.794-5.48-.685-0.67,2.2.17,2.739-1.37,8.218s-10.27,40.576-14.38,52.048-4.79,17.805-6.16,17.806-7.02,3.252-3.43-5.479,23.21-73.559,19.86-73.962a61.063,61.063,0,0,1-8.9,12.327c-3.35,3.363-16.36,15.006-33.56,17.806-25.75,4.192-26.02-31.5-26.02-31.5s-23.02,109.635-26.02,130.8c-2.84,15.861-2.65,19.75-1.37,19.86s2.83-.8,3.42-4.109,3.02-15.695,4.11-16.436,30.19,5.763,35.61,5.479,4.17-2,5.48-6.164a35.964,35.964,0,0,1,1.37-4.109l-2.74-2.739-58.9-9.588c-4.16-3.024-4.96-7.02.69-45.2,2.91-15.58,6.16-28.079,6.16-28.079s-9.07,6.677-12.32,8.9c-4.63,14.554-7.48,72.649-7.54,73.278s32.25,10.329,32.87,6.848,17.58-104.78,17.81-101.356c0.01,0.178-7.32-5.7-8.9-9.587s-1.16-21.455,0-24.654-2.99-7.758-2.06-11.643,2.27-5.931,1.37-10.957-0.68-4.794-.68-4.794,0.43-8.442,2.05-10.272,7.71-4.281,10.27-4.109,11.06,12.02,16.44,13.7c2.05,2.784,7.23-1.583,8.22-13.012,2.05-23.627,20.37-28.591,29.45-24.654s-10.24,25.491-18.65,12.451c-6.98-10.838-10.82-22.568-1.9-23.408,2.51,0.787,29.34,12.225,36.3-10.273,0.68-3.093,6.63,6.29,6.85,18.491-0.01,9.918-1.05,10.518-2.74,12.327s-4.64,3.327-4.11,6.164,4.6,5.039,8.22,3.424,3.42-1.37,3.42-1.37-3.66-.649-4.66-0.169c-0.65.316-.15,1.117,3.29,2.908,1.15,0.412,14.26-.811,10.96-6.848,2.63,5.833-7.37,5.693-9.59,13.012-5.14,11.687,7.37,7.716-1.37,9.588-4.34.33-4.79-.559-8.22,0.684a7.4,7.4,0,0,1-7.53-1.369c2.96,5.581,12.56,7.659,15.07,7.533a6.949,6.949,0,0,0,6.16-4.794c0.91-2.865,4.11-6.163,4.11-6.163a5.048,5.048,0,0,1-4.11,0c-3.03-1.725-2.73,1.039-6.85,0-3.89-.583-7.53,3.142-18.49,2.739-7.07-.26-3.63,21.908,8.22,26.709,3.68,1.023,11.73,2.462,12.33-4.109,0.45-4.987-9-2.341-10.28.684C1222.91,348.018,1226.73,352.434,1218.74,354.488Z" transform="translate(-971.438 -176.219)"/>
</svg>
